<svg xmlns="http://www.w3.org/2000/svg" xmlns:xlink="http://www.w3.org/1999/xlink" xmlns:lucid="lucid" width="1770" height="3930"><g transform="translate(-55 765)" lucid:page-tab-id="0_0"><path d="M0-1000h2000v4500H0z" fill="#fff"/><path d="M60-718.1V-754a6 6 0 0 1 6-6h1748a6 6 0 0 1 6 6v35.9z" stroke="#3a414a" stroke-width="10" fill="#fff"/><path d="M60-676.22v-41.9h720v41.9" stroke="#3a414a" stroke-width="10" fill="#fff0fb"/><path d="M780-676.22v-41.9h1040v41.9" stroke="#3a414a" stroke-width="10" fill="#e3fae3"/><path d="M780 3160H66a6 6 0 0 1-6-6V-676.22h720zM1820-676.22V3154a6 6 0 0 1-6 6H780V-676.22z" stroke="#3a414a" stroke-width="10" fill="none"/><use xlink:href="#a" transform="matrix(1,0,0,1,60,-760) translate(774.5149739583334 29.08376736111111)"/><use xlink:href="#b" transform="matrix(1,0,0,1,60,-760) translate(856.3834635416667 29.08376736111111)"/><use xlink:href="#c" transform="matrix(1,0,0,1,60,-718.1119791666666) translate(334.50086805555554 29.08376736111111)"/><use xlink:href="#d" transform="matrix(1,0,0,1,780,-718.1119791666666) translate(493.73046875 29.08376736111111)"/><path d="M440-580c0 22.1-17.9 40-40 40s-40-17.9-40-40 17.9-40 40-40 40 17.9 40 40z" stroke="#3a414a" stroke-width="10"/><use xlink:href="#e" transform="matrix(1,0,0,1,365,-615) translate(26.70464409722222 43.40277777777778)"/><path d="M395.26-436.32a7.7 7.7 0 0 1 9.48 0l80.52 62.64a4.67 4.67 0 0 1 0 7.36l-80.52 62.64a7.7 7.7 0 0 1-9.48 0l-80.52-62.64a4.67 4.67 0 0 1 0-7.36z" stroke="#3a414a" stroke-width="10" fill="#fff"/><use xlink:href="#f" transform="matrix(1,0,0,1,315,-435) translate(14.486336805555561 71.53777777777778)"/><use xlink:href="#g" transform="matrix(1,0,0,1,315,-435) translate(59.50586805555556 98.4257986111111)"/><path d="M180-214a6 6 0 0 1 6-6h148a6 6 0 0 1 6 6v108a6 6 0 0 1-6 6H186a6 6 0 0 1-6-6z" stroke="#3a414a" stroke-width="10" fill="#fff"/><use xlink:href="#h" transform="matrix(1,0,0,1,192,-208) translate(33.869140625 30.52777777777778)"/><use xlink:href="#i" transform="matrix(1,0,0,1,192,-208) translate(3.44921875 57.415798611111114)"/><use xlink:href="#j" transform="matrix(1,0,0,1,192,-208) translate(40.96549479166667 84.30381944444446)"/><path d="M920-434a6 6 0 0 1 6-6h148a6 6 0 0 1 6 6v108a6 6 0 0 1-6 6H926a6 6 0 0 1-6-6z" stroke="#3a414a" stroke-width="10" fill="#fff"/><use xlink:href="#k" transform="matrix(1,0,0,1,932,-428) translate(40.18424479166667 29.19574652777777)"/><use xlink:href="#l" transform="matrix(1,0,0,1,932,-428) translate(-12.750868055555543 56.08376736111111)"/><use xlink:href="#m" transform="matrix(1,0,0,1,932,-428) translate(38.638020833333336 82.97178819444444)"/><path d="M994.94-226.78a9.43 9.43 0 0 1 10.12 0l99.88 63.56a3.82 3.82 0 0 1 0 6.44l-99.88 63.56a9.43 9.43 0 0 1-10.12 0l-99.88-63.56a3.82 3.82 0 0 1 0-6.44z" stroke="#3a414a" stroke-width="10" fill="#fff"/><use xlink:href="#n" transform="matrix(1,0,0,1,895,-225) translate(72.04059027777777 49.96527777777778)"/><use xlink:href="#o" transform="matrix(1,0,0,1,895,-225) translate(24.254131944444463 76.85329861111111)"/><path d="M1380-214a6 6 0 0 1 6-6h148a6 6 0 0 1 6 6v108a6 6 0 0 1-6 6h-148a6 6 0 0 1-6-6z" stroke="#3a414a" stroke-width="10" fill="#fff"/><use xlink:href="#p" transform="matrix(1,0,0,1,1392,-208) translate(38.76280381944444 42.63975694444444)"/><use xlink:href="#o" transform="matrix(1,0,0,1,1392,-208) translate(-12.750868055555543 69.52777777777777)"/><path d="M400-530v51.6" stroke="#3a414a" stroke-width="10" fill="none"/><path d="M404.98-529.87h-9.96v-5.43l4.9.3 3.37-.1 1.68-.24z" stroke="#3a414a" stroke-width=".05" fill="#3a414a"/><path d="M400-459.13l-4.63-14.27h9.26z" stroke="#3a414a" stroke-width="10" fill="#3a414a"/><path d="M264.98-260.45h-9.96v-50.25H265zm37.93-104.57h-36.7l-.36.02-.15.04-.16.06-.13.08-.1.1-.12.13-.08.14-.06.15-.04.14-.02.36v31.6h-9.96v-32l.13-1.52.4-1.68.66-1.6.9-1.46 1.13-1.3 1.3-1.13 1.48-.9 1.6-.65 1.68-.4 1.53-.13h37.1z" stroke="#3a414a" stroke-width=".05" fill="#3a414a"/><path d="M308.55-373.45l-.48 1.7-.16 1.75.17 1.75.48 1.7.75 1.53h-6.5v-9.96h6.5z" fill="#3a414a"/><path stroke="#3a414a" stroke-width=".05" fill="#3a414a"/><path d="M260-241.18l-4.63-14.27h9.26z" fill="#3a414a"/><path d="M260-225.08l-11.48-35.34h22.96z" stroke="#3a414a" stroke-width=".05" fill="#3a414a"/><use xlink:href="#q" transform="matrix(1,0,0,1,244.20138888888889,-332.212073139452) translate(0 17.22222222222222)"/><path d="M691.32-365.02H497.1v-9.96H691.3zm188.23-10H715.77v-9.96h163.78z" stroke="#3a414a" stroke-width=".05" fill="#3a414a"/><path d="M497.2-365.02h-6.5l.75-1.53.48-1.7.16-1.75-.17-1.75-.48-1.7-.75-1.53h6.5z" fill="#3a414a"/><path stroke="#3a414a" stroke-width=".05" fill="#3a414a"/><path d="M898.82-380l-14.27 4.63v-9.26z" fill="#3a414a"/><path d="M914.92-380l-35.34 11.48v-22.96z" stroke="#3a414a" stroke-width=".05" fill="#3a414a"/><use xlink:href="#r" transform="matrix(1,0,0,1,691.3165726938807,-385.75520833333337) translate(0 17.22222222222222)"/><path d="M1000-310v41.3" stroke="#3a414a" stroke-width="10" fill="none"/><path d="M1004.98-309.87H995V-315h9.96z" stroke="#3a414a" stroke-width=".05" fill="#3a414a"/><path d="M1000-249.44l-4.63-14.27h9.26z" stroke="#3a414a" stroke-width="10" fill="#3a414a"/><path d="M600.84-155.03h-220.4v-9.94h220.4zm282.43 0H632.43v-9.94h250.84z" stroke="#3a414a" stroke-width=".05" fill="#3a414a"/><path d="M888.97-163.46l-.52 1.7-.18 1.76.18 1.76.52 1.7.83 1.5h-6.66v-9.94h6.66z" fill="#3a414a"/><path stroke="#3a414a" stroke-width=".05" fill="#3a414a"/><path d="M375.45-155.37L361.18-160l14.27-4.63z" fill="#3a414a"/><path d="M380.42-148.52L345.08-160l35.34-11.48z" stroke="#3a414a" stroke-width=".05" fill="#3a414a"/><use xlink:href="#q" transform="matrix(1,0,0,1,600.8355707357308,-170.75520833333334) translate(0 17.22222222222222)"/><path d="M1231.14-155.03h-114.4v-9.94h114.4zm108.4 0h-83.95v-9.94h83.95z" stroke="#3a414a" stroke-width=".05" fill="#3a414a"/><path d="M1116.86-155.03h-6.66l.83-1.5.52-1.7.18-1.77-.18-1.76-.52-1.7-.84-1.5h6.66z" fill="#3a414a"/><path stroke="#3a414a" stroke-width=".05" fill="#3a414a"/><path d="M1358.82-160l-14.27 4.63v-9.26z" fill="#3a414a"/><path d="M1374.92-160l-35.34 11.48v-22.96z" stroke="#3a414a" stroke-width=".05" fill="#3a414a"/><use xlink:href="#r" transform="matrix(1,0,0,1,1231.139255653158,-170.75520833333334) translate(0 17.22222222222222)"/><path d="M1455.72-487.8l1.68.4 1.6.65 1.46.9 1.3 1.13 1.13 1.3.9 1.48.65 1.6.4 1.67.13 1.52V-230h-9.95v-246.76l-.03-.35-.04-.16-.06-.15-.08-.15-.1-.12-.13-.1-.14-.08-.15-.06-.14-.05-.36-.03H404.9v.03h-.06l-.02.05-.05-.02-.03.05-.05-.02-.05.06-.04-.04-.04.05-.03-.04-.05.03-.03-.04-.06.02-.03-.05h-.06v-.04h-.07v-.13l-9.2-.72.1-1.1.35-1.45.57-1.38.78-1.28.98-1.15 1.14-.97 1.28-.78 1.38-.58 1.46-.34 1.3-.1H1454.2z" stroke="#3a414a" stroke-width=".05" fill="#3a414a"/><path d="M1464.97-225h-9.94v-5.13h9.94z" fill="#3a414a"/><path stroke="#3a414a" stroke-width=".05" fill="#3a414a"/><path d="M400-459.13l-4.63-14.27h9.26z" fill="#3a414a"/><path d="M400-443.03l-11.48-35.34h22.96z" stroke="#3a414a" stroke-width=".05" fill="#3a414a"/><path d="M180 66a6 6 0 0 1 6-6h148a6 6 0 0 1 6 6v108a6 6 0 0 1-6 6H186a6 6 0 0 1-6-6z" stroke="#3a414a" stroke-width="10" fill="#fff"/><use xlink:href="#s" transform="matrix(1,0,0,1,192,72) translate(34.824001736111114 42.52777777777778)"/><use xlink:href="#b" transform="matrix(1,0,0,1,192,72) translate(3.44921875 69.41579861111111)"/><path d="M460 66a6 6 0 0 1 6-6h148a6 6 0 0 1 6 6v108a6 6 0 0 1-6 6H466a6 6 0 0 1-6-6z" stroke="#3a414a" stroke-width="10" fill="#fff"/><use xlink:href="#t" transform="matrix(1,0,0,1,472,72) translate(31.503689236111107 30.52777777777778)"/><use xlink:href="#u" transform="matrix(1,0,0,1,472,72) translate(22.166666666666664 57.415798611111114)"/><use xlink:href="#v" transform="matrix(1,0,0,1,472,72) translate(3.44921875 84.30381944444446)"/><path d="M260-90V19.55" stroke="#3a414a" stroke-width="10" fill="none"/><path d="M264.98-89.87h-9.96V-95H265z" stroke="#3a414a" stroke-width=".05" fill="#3a414a"/><path d="M260 38.82l-4.63-14.27h9.26z" stroke="#3a414a" stroke-width="10" fill="#3a414a"/><path d="M260-90v64a6 6 0 0 0 6 6h268a6 6 0 0 1 6 6v33.55" stroke="#3a414a" stroke-width="10" fill="none"/><path d="M264.98-89.87h-9.96V-95H265z" stroke="#3a414a" stroke-width=".05" fill="#3a414a"/><path d="M540 38.82l-4.63-14.27h9.26z" stroke="#3a414a" stroke-width="10" fill="#3a414a"/><path d="M260 190v49.55" stroke="#3a414a" stroke-width="10" fill="none"/><path d="M264.98 190.13h-9.96V185H265z" stroke="#3a414a" stroke-width=".05" fill="#3a414a"/><path d="M260 258.82l-4.63-14.27h9.26z" stroke="#3a414a" stroke-width="10" fill="#3a414a"/><path d="M180 286a6 6 0 0 1 6-6h148a6 6 0 0 1 6 6v108a6 6 0 0 1-6 6H186a6 6 0 0 1-6-6z" stroke="#3a414a" stroke-width="10" fill="#fff"/><use xlink:href="#w" transform="matrix(1,0,0,1,192,292) translate(4.165364583333336 42.52777777777778)"/><use xlink:href="#x" transform="matrix(1,0,0,1,192,292) translate(65.48263888888889 42.52777777777778)"/><use xlink:href="#y" transform="matrix(1,0,0,1,192,292) translate(8.201822916666671 69.41579861111111)"/><use xlink:href="#z" transform="matrix(1,0,0,1,192,292) translate(65.31987847222223 69.41579861111111)"/><path d="M460 286a6 6 0 0 1 6-6h148a6 6 0 0 1 6 6v108a6 6 0 0 1-6 6H466a6 6 0 0 1-6-6z" stroke="#3a414a" stroke-width="10" fill="#fff"/><use xlink:href="#A" transform="matrix(1,0,0,1,472,292) translate(26.393012152777786 42.52777777777778)"/><use xlink:href="#B" transform="matrix(1,0,0,1,472,292) translate(40.835286458333336 69.41579861111111)"/><path d="M540 190v49.55" stroke="#3a414a" stroke-width="10" fill="none"/><path d="M544.98 190.13H535V185H545z" stroke="#3a414a" stroke-width=".05" fill="#3a414a"/><path d="M540 258.82l-4.63-14.27h9.26z" stroke="#3a414a" stroke-width="10" fill="#3a414a"/><path d="M1045.52 784a6.75 6.75 0 0 1 8.96 0l81.04 72a5.33 5.33 0 0 1 0 8l-81.04 72a6.75 6.75 0 0 1-8.96 0l-81.04-72a5.33 5.33 0 0 1 0-8z" stroke="#3a414a" stroke-width="10" fill="#fff"/><use xlink:href="#C" transform="matrix(1,0,0,1,965,785) translate(50.26650173611112 54.34027777777778)"/><use xlink:href="#u" transform="matrix(1,0,0,1,965,785) translate(39.17166666666666 81.22829861111111)"/><use xlink:href="#D" transform="matrix(1,0,0,1,965,785) translate(41.6673263888889 108.11631944444446)"/><path d="M800 1326a6 6 0 0 1 6-6h148a6 6 0 0 1 6 6v108a6 6 0 0 1-6 6H806a6 6 0 0 1-6-6z" stroke="#3a414a" stroke-width="10" fill="#fff"/><use xlink:href="#E" transform="matrix(1,0,0,1,812,1332) translate(24.130642361111114 42.52777777777778)"/><use xlink:href="#b" transform="matrix(1,0,0,1,812,1332) translate(3.44921875 69.41579861111111)"/><path d="M440 1181.57a6 6 0 0 1 6-6h148a6 6 0 0 1 6 6v108a6 6 0 0 1-6 6H446a6 6 0 0 1-6-6z" stroke="#3a414a" stroke-width="10" fill="#fff"/><use xlink:href="#F" transform="matrix(1,0,0,1,452,1187.5680684287108) translate(2.0006510416666714 30.52777777777778)"/><use xlink:href="#G" transform="matrix(1,0,0,1,452,1187.5680684287108) translate(65.73763020833334 30.52777777777778)"/><use xlink:href="#H" transform="matrix(1,0,0,1,452,1187.5680684287108) translate(3.44921875 57.415798611111114)"/><use xlink:href="#j" transform="matrix(1,0,0,1,452,1187.5680684287108) translate(40.96549479166667 84.30381944444446)"/><path d="M800 1566a6 6 0 0 1 6-6h148a6 6 0 0 1 6 6v108a6 6 0 0 1-6 6H806a6 6 0 0 1-6-6z" stroke="#3a414a" stroke-width="10" fill="#fff"/><use xlink:href="#I" transform="matrix(1,0,0,1,812,1572) translate(28.828993055555557 30.52777777777778)"/><use xlink:href="#u" transform="matrix(1,0,0,1,812,1572) translate(22.166666666666664 57.415798611111114)"/><use xlink:href="#D" transform="matrix(1,0,0,1,812,1572) translate(24.6623263888889 84.30381944444446)"/><path d="M880 1450v69.55" stroke="#3a414a" stroke-width="10" fill="none"/><path d="M884.98 1450.13H875V1445H885z" stroke="#3a414a" stroke-width=".05" fill="#3a414a"/><path d="M880 1538.82l-4.63-14.27h9.26z" stroke="#3a414a" stroke-width="10" fill="#3a414a"/><path d="M800 1746a6 6 0 0 1 6-6h148a6 6 0 0 1 6 6v108a6 6 0 0 1-6 6H806a6 6 0 0 1-6-6z" stroke="#3a414a" stroke-width="10" fill="#fff"/><use xlink:href="#J" transform="matrix(1,0,0,1,812,1752) translate(29.610243055555557 30.52777777777778)"/><use xlink:href="#K" transform="matrix(1,0,0,1,812,1752) translate(6.167317708333336 57.415798611111114)"/><use xlink:href="#L" transform="matrix(1,0,0,1,812,1752) translate(29.68619791666667 84.30381944444446)"/><path d="M880 1690v9.55" stroke="#3a414a" stroke-width="10" fill="none"/><path d="M884.98 1690.13H875V1685H885z" stroke="#3a414a" stroke-width=".05" fill="#3a414a"/><path d="M880 1718.82l-4.63-14.27h9.26z" stroke="#3a414a" stroke-width="10" fill="#3a414a"/><path d="M800 1971a6 6 0 0 1 6-6h148a6 6 0 0 1 6 6v108a6 6 0 0 1-6 6H806a6 6 0 0 1-6-6z" stroke="#3a414a" stroke-width="10" fill="#fff"/><use xlink:href="#M" transform="matrix(1,0,0,1,812,1976.9999500000013) translate(23.77799479166667 30.52777777777778)"/><use xlink:href="#i" transform="matrix(1,0,0,1,812,1976.9999500000013) translate(3.44921875 57.415798611111114)"/><use xlink:href="#N" transform="matrix(1,0,0,1,812,1976.9999500000013) translate(21.66753472222223 84.30381944444446)"/><path d="M880 1870v54.55" stroke="#3a414a" stroke-width="10" fill="none"/><path d="M884.98 1870.13H875V1865H885z" stroke="#3a414a" stroke-width=".05" fill="#3a414a"/><path d="M880 1943.82l-4.63-14.27h9.26z" stroke="#3a414a" stroke-width="10" fill="#3a414a"/><path d="M1015.76 2149.24a6 6 0 0 1 8.48 0l91.52 91.52a6 6 0 0 1 0 8.48l-91.52 91.52a6 6 0 0 1-8.48 0l-91.52-91.52a6 6 0 0 1 0-8.48z" stroke="#3a414a" stroke-width="10" fill="#fff"/><use xlink:href="#O" transform="matrix(1,0,0,1,925,2149.9999500000017) translate(42.10828993055556 76.19574652777777)"/><use xlink:href="#P" transform="matrix(1,0,0,1,925,2149.9999500000017) translate(116.84787326388889 76.19574652777777)"/><use xlink:href="#Q" transform="matrix(1,0,0,1,925,2149.9999500000017) translate(47.24609375 103.08376736111111)"/><use xlink:href="#R" transform="matrix(1,0,0,1,925,2149.9999500000017) translate(23.515625000000014 129.97178819444443)"/><path d="M880 2095v15.24a6 6 0 0 0 6 6h124.8" stroke="#3a414a" stroke-width="10" fill="none"/><path d="M884.98 2095.13H875V2090H885z" stroke="#3a414a" stroke-width=".05" fill="#3a414a"/><path d="M1014.64 2127.2l-9.1-11.92 8.75-3.07z" stroke="#3a414a" stroke-width="10" fill="#3a414a"/><path d="M882.45 2843.8l.02.36.04.15.07.16.08.13.1.1.13.12.13.08.16.06.15.04.37.03h123.88v9.94H883.27l-1.52-.1-1.68-.42-1.6-.66-1.46-.9-1.3-1.13-1.12-1.3-.9-1.48-.66-1.6-.4-1.68-.13-1.52v-223.18h9.95zm30.02-593.83h-28.8l-.36.03-.14.04-.15.06-.12.08-.12.1-.1.13-.1.14-.05.15-.03.14-.02.36v348.3h-9.96v-348.7l.12-1.52.4-1.68.66-1.6.9-1.46 1.12-1.3 1.3-1.13 1.48-.9 1.6-.65 1.67-.4 1.52-.13h29.2z" stroke="#3a414a" stroke-width=".05" fill="#3a414a"/><path d="M918 2241.6l-.4 1.68-.13 1.72.13 1.72.4 1.68.66 1.57h-6.32v-9.94h6.32z" fill="#3a414a"/><path stroke="#3a414a" stroke-width=".05" fill="#3a414a"/><path d="M1026.82 2850l-14.27 4.64v-9.28z" fill="#3a414a"/><path d="M1042.9 2850l-35.33 11.48v-22.96z" stroke="#3a414a" stroke-width=".05" fill="#3a414a"/><use xlink:href="#q" transform="matrix(1,0,0,1,861.671240378735,2599.507657887978) translate(0 17.22222222222222)"/><path d="M1160 2406a6 6 0 0 1 6-6h148a6 6 0 0 1 6 6v108a6 6 0 0 1-6 6h-148a6 6 0 0 1-6-6z" stroke="#3a414a" stroke-width="10" fill="#fff"/><use xlink:href="#p" transform="matrix(1,0,0,1,1172,2412) translate(38.76280381944444 42.52777777777778)"/><use xlink:href="#S" transform="matrix(1,0,0,1,1172,2412) translate(20.24609375 69.41579861111111)"/><path d="M1244.97 2359.55h-9.94v-87.53h9.94zm-9.25-119.4l1.68.4 1.6.66 1.46.9 1.3 1.13 1.13 1.3.9 1.48.65 1.6.4 1.68.1 1.23h-10.07l-.06-.1-.1-.1-.13-.12-.14-.08-.15-.06-.14-.04-.36-.03h-106.27v-9.94h106.66z" stroke="#3a414a" stroke-width=".05" fill="#3a414a"/><path d="M1127.66 2249.97h-6.32l.65-1.57.4-1.68.13-1.72-.13-1.72-.4-1.68-.66-1.57h6.32z" fill="#3a414a"/><path stroke="#3a414a" stroke-width=".05" fill="#3a414a"/><path d="M1240 2378.82l-4.63-14.27h9.27z" fill="#3a414a"/><path d="M1240 2394.92l-11.48-35.34h22.96z" stroke="#3a414a" stroke-width=".05" fill="#3a414a"/><use xlink:href="#r" transform="matrix(1,0,0,1,1227.7734375,2250.5098659217438) translate(0 17.22222222222222)"/><path d="M1160 2646a6 6 0 0 1 6-6h148a6 6 0 0 1 6 6v108a6 6 0 0 1-6 6h-148a6 6 0 0 1-6-6z" stroke="#3a414a" stroke-width="10" fill="#fff"/><use xlink:href="#T" transform="matrix(1,0,0,1,1172,2652) translate(43.58051215277778 29.19574652777777)"/><use xlink:href="#U" transform="matrix(1,0,0,1,1172,2652) translate(26.865017361111114 56.08376736111111)"/><use xlink:href="#V" transform="matrix(1,0,0,1,1172,2652) translate(-3.484374999999986 82.97178819444444)"/><path d="M1110 2850c0 16.57-13.43 30-30 30s-30-13.43-30-30 13.43-30 30-30 30 13.43 30 30z" stroke="#3a414a" stroke-width="14" fill="#fff"/><path d="M260 410v274a6 6 0 0 0 6 6h778a6 6 0 0 1 6 6v45.82" stroke="#000" stroke-width="10" fill="none"/><path d="M264.98 410.13h-9.96V405H265z" stroke="#000" stroke-width=".05"/><path d="M1050 761.1l-4.63-14.28h9.27z" stroke="#000" stroke-width="10"/><path d="M970 426a6 6 0 0 1 6-6h148a6 6 0 0 1 6 6v119.55a6 6 0 0 1-6 6H976a6 6 0 0 1-6-6z" stroke="#3a414a" stroke-width="10" fill="#fff"/><g><use xlink:href="#W" transform="matrix(1,0,0,1,982,432) translate(18.10308159722223 24.90277777777778)"/><use xlink:href="#X" transform="matrix(1,0,0,1,982,432) translate(31.503689236111107 51.790798611111114)"/><use xlink:href="#Y" transform="matrix(1,0,0,1,982,432) translate(22.166666666666664 78.67881944444446)"/><use xlink:href="#Z" transform="matrix(1,0,0,1,982,432) translate(24.325954861111107 105.56684027777777)"/></g><path d="M949.2 1133.84h-63l-.36.03-.15.04-.16.07-.13.08-.1.1-.12.12-.08.14-.06.15-.04.16-.02.36v144.5H875v-144.9l.13-1.5.4-1.7.66-1.58.9-1.47 1.13-1.3 1.3-1.13 1.48-.9 1.6-.66 1.68-.4 1.52-.1h63.4zm105.77-10.78l-.12 1.53-.4 1.66-.66 1.6-.9 1.47-1.13 1.3-1.3 1.13-1.48.9-1.6.66-1.68.4-1.53.12h-63.4v-9.95h63l.36-.04.15-.03.16-.06.13-.1.1-.1.12-.1.08-.15.06-.14.04-.16.03-.35V947.73h9.94z" stroke="#3a414a" stroke-width=".05" fill="#3a414a"/><path d="M1045.03 941.63l1.6.6 1.67.38 1.7.13 1.7-.12 1.67-.36 1.6-.6v6.22h-9.94v-6.23z" fill="#3a414a"/><path stroke="#3a414a" stroke-width=".05" fill="#3a414a"/><path d="M880 1298.82l-4.63-14.27h9.26z" fill="#3a414a"/><path d="M880 1314.92l-11.48-35.34h22.96z" stroke="#3a414a" stroke-width=".05" fill="#3a414a"/><g><use xlink:href="#q" transform="matrix(1,0,0,1,949.2013888888889,1118.1108202414036) translate(0 17.22222222222222)"/></g><path d="M1089.22 1240.54H640.45v-9.95h448.77zm88.82-385.4l1.68.4 1.6.67 1.46.9 1.32 1.13 1.12 1.3.9 1.48.66 1.6.4 1.68.12 1.52v363.96l-.12 1.53-.4 1.66-.66 1.6-.9 1.47-1.13 1.3-1.32 1.13-1.47.9-1.58.66-1.68.4-1.52.12h-62.85v-9.95h62.46l.35-.03.15-.04.15-.06.14-.1.12-.1.1-.1.08-.14.06-.15.04-.15.03-.36V866.2l-.03-.36-.04-.15-.06-.16-.08-.13-.1-.1-.12-.12-.14-.08-.14-.06-.16-.04-.35-.02h-28.8V855h29.2z" stroke="#3a414a" stroke-width=".05" fill="#3a414a"/><path d="M1147.45 864.98h-6.4l.7-1.55.43-1.7.14-1.73-.14-1.74-.44-1.7-.7-1.53h6.4z" fill="#3a414a"/><path stroke="#3a414a" stroke-width=".05" fill="#3a414a"/><path d="M635.45 1240.2l-14.27-4.63 14.27-4.64z" fill="#3a414a"/><path d="M640.42 1247.05l-35.34-11.48 35.34-11.48z" stroke="#3a414a" stroke-width=".05" fill="#3a414a"/><g><use xlink:href="#r" transform="matrix(1,0,0,1,1089.2191650247478,1224.8128600953776) translate(0 17.22222222222222)"/></g><path d="M430 1235.57H141a6 6 0 0 1-6-6V-155.45a4.55 4.55 0 0 1 4.55-4.55" stroke="#3a414a" stroke-width="10" fill="none"/><path d="M435 1240.54h-5.13v-9.95H435z" stroke="#3a414a" stroke-width=".05" fill="#3a414a"/><path d="M158.82-160l-14.27 4.63v-9.26z" stroke="#3a414a" stroke-width="10" fill="#3a414a"/><path d="M1240 2770v74a6 6 0 0 1-6 6h-81.55" stroke="#3a414a" stroke-width="10" fill="none"/><path d="M1244.97 2770.13h-9.94V2765h9.94z" stroke="#3a414a" stroke-width=".05" fill="#3a414a"/><path d="M1133.18 2850l14.27-4.64v9.28z" stroke="#3a414a" stroke-width="10" fill="#3a414a"/><path d="M1240 2530v69.55" stroke="#3a414a" stroke-width="10" fill="none"/><path d="M1244.97 2530.13h-9.94V2525h9.94z" stroke="#3a414a" stroke-width=".05" fill="#3a414a"/><path d="M1240 2618.82l-4.63-14.27h9.27z" stroke="#3a414a" stroke-width="10" fill="#3a414a"/><path d="M540 410v69.78a6 6 0 0 0 6 6h383.55" stroke="#3a414a" stroke-width="10" fill="none"/><path d="M544.98 410.13H535V405H545z" stroke="#3a414a" stroke-width=".05" fill="#3a414a"/><path d="M948.82 485.78l-14.27 4.63v-9.26z" stroke="#3a414a" stroke-width="10" fill="#3a414a"/><path d="M1050 561.55v180.27" stroke="#3a414a" stroke-width="10" fill="none"/><path d="M1054.97 561.68h-9.94v-5.13h9.94z" stroke="#3a414a" stroke-width=".05" fill="#3a414a"/><path d="M1050 761.1l-4.63-14.28h9.27z" stroke="#3a414a" stroke-width="10" fill="#3a414a"/><defs><path d="M135 0v-1490h305v602h649v-602h306V0h-306v-635H440V0H135" id="aa"/><path d="M440 22C227 22 68-92 68-313c0-250 202-322 422-343 195-21 271-24 271-105 0-95-63-149-175-149-116 0-187 57-211 129l-275-46c57-194 237-305 487-305 240 0 474 108 474 379V0H777v-155h-10C713-51 605 22 440 22zm85-211c140 0 238-93 238-211v-121c-37 26-156 42-222 51-111 16-185 59-185 149 0 87 70 132 169 132" id="ab"/><path d="M428-647V0H128v-1118h283l4 231c63-156 176-245 348-245 232 0 384 159 384 421V0H847v-659c0-139-76-222-202-222-128 0-217 86-217 234" id="ac"/><path d="M537 19C279 19 81-185 81-557c0-382 206-575 454-575 190 0 278 113 318 202h10v-560h300V0H868v-179h-15C812-89 719 19 537 19zm92-241c153 0 240-134 240-336 0-203-86-334-240-334-158 0-240 138-240 334 0 197 84 336 240 336" id="ad"/><path d="M428-1490V0H128v-1490h300" id="ae"/><path d="M633 22C291 22 81-200 81-553c0-345 210-579 537-579 292 0 525 185 525 567v84H378c7 183 109 277 260 277 105 0 184-46 216-132l272 51C1071-99 893 22 633 22zM380-669h474c-15-146-94-237-233-237-143 0-229 99-241 237" id="af"/><g id="a"><use transform="matrix(0.010850694444444444,0,0,0.010850694444444444,0,0)" xlink:href="#aa"/><use transform="matrix(0.010850694444444444,0,0,0.010850694444444444,16.6015625,0)" xlink:href="#ab"/><use transform="matrix(0.010850694444444444,0,0,0.010850694444444444,29.503038194444443,0)" xlink:href="#ac"/><use transform="matrix(0.010850694444444444,0,0,0.010850694444444444,43.33767361111111,0)" xlink:href="#ad"/><use transform="matrix(0.010850694444444444,0,0,0.010850694444444444,57.345920138888886,0)" xlink:href="#ae"/><use transform="matrix(0.010850694444444444,0,0,0.010850694444444444,63.36805555555555,0)" xlink:href="#af"/></g><path d="M75-1237v-253h1217v253H837V0H531v-1237H75" id="ag"/><path d="M128 0v-1118h290v195h12c54-169 184-238 367-200v268c-27-8-86-15-130-15-138 0-239 95-239 234V0H128" id="ah"/><path d="M572 22C302 22 117-98 78-306l279-48c29 105 101 156 224 156 114 0 185-48 185-115 0-118-228-130-337-155-215-49-322-150-322-317 0-215 187-347 470-347 265 0 424 116 466 298l-266 47c-24-76-87-130-196-130-98 0-174 46-174 113 0 56 38 95 144 117l201 40c216 44 320 143 320 302 0 220-207 367-500 367" id="ai"/><path d="M628 22C291 22 81-210 81-554c0-346 210-578 547-578 265 0 455 142 497 372l-279 52c-25-116-99-188-215-188-160 0-244 139-244 341 0 200 84 341 244 341 116 0 193-74 217-195l279 51C1085-123 896 22 628 22" id="aj"/><path d="M683-1118v229H474v562c0 71 29 104 102 104 23 0 73-7 95-13l43 225C647 9 580 16 520 16 296 16 174-96 174-301v-588H20v-229h154v-266h300v266h209" id="ak"/><path d="M128 0v-1118h300V0H128zm150-1264c-91 0-165-68-165-154 0-85 74-154 165-154 90 0 165 69 165 154 0 86-75 154-165 154" id="al"/><path d="M628 22C291 22 81-210 81-554c0-346 210-578 547-578 336 0 547 232 547 578 0 344-211 576-547 576zm0-236c160 0 242-146 242-341 0-197-82-341-242-341S387-753 387-555c0 195 81 341 241 341" id="am"/><g id="b"><use transform="matrix(0.010850694444444444,0,0,0.010850694444444444,0,0)" xlink:href="#ag"/><use transform="matrix(0.010850694444444444,0,0,0.010850694444444444,13.57421875,0)" xlink:href="#ah"/><use transform="matrix(0.010850694444444444,0,0,0.010850694444444444,22.31987847222222,0)" xlink:href="#ab"/><use transform="matrix(0.010850694444444444,0,0,0.010850694444444444,35.221354166666664,0)" xlink:href="#ac"/><use transform="matrix(0.010850694444444444,0,0,0.010850694444444444,49.05598958333333,0)" xlink:href="#ai"/><use transform="matrix(0.010850694444444444,0,0,0.010850694444444444,61.50173611111111,0)" xlink:href="#ab"/><use transform="matrix(0.010850694444444444,0,0,0.010850694444444444,74.40321180555556,0)" xlink:href="#aj"/><use transform="matrix(0.010850694444444444,0,0,0.010850694444444444,87.47829861111111,0)" xlink:href="#ak"/><use transform="matrix(0.010850694444444444,0,0,0.010850694444444444,95.61631944444444,0)" xlink:href="#al"/><use transform="matrix(0.010850694444444444,0,0,0.010850694444444444,101.63845486111111,0)" xlink:href="#am"/><use transform="matrix(0.010850694444444444,0,0,0.010850694444444444,115.26692708333334,0)" xlink:href="#ac"/></g><path d="M750 21c-371 0-615-218-615-544v-967h305v942c0 174 123 299 310 299s309-125 309-299v-942h306v967c0 326-247 544-615 544" id="an"/><g id="c"><use transform="matrix(0.010850694444444444,0,0,0.010850694444444444,0,0)" xlink:href="#an"/><use transform="matrix(0.010850694444444444,0,0,0.010850694444444444,16.26519097222222,0)" xlink:href="#ai"/><use transform="matrix(0.010850694444444444,0,0,0.010850694444444444,28.7109375,0)" xlink:href="#af"/><use transform="matrix(0.010850694444444444,0,0,0.010850694444444444,41.94878472222222,0)" xlink:href="#ah"/></g><path d="M135 0v-1490h305v1237h643V0H135" id="ao"/><g id="d"><use transform="matrix(0.010850694444444444,0,0,0.010850694444444444,0,0)" xlink:href="#ao"/><use transform="matrix(0.010850694444444444,0,0,0.010850694444444444,12.565104166666666,0)" xlink:href="#ab"/><use transform="matrix(0.010850694444444444,0,0,0.010850694444444444,25.46657986111111,0)" xlink:href="#ac"/><use transform="matrix(0.010850694444444444,0,0,0.010850694444444444,39.30121527777778,0)" xlink:href="#af"/></g><path d="M49 0l509-1490h400L1480 0h-339l-115-346H497L386 0H49zm524-585h374c-75-213-124-402-192-666-66 268-110 453-182 666" id="ap"/><use transform="matrix(0.010850694444444444,0,0,0.010850694444444444,0,0)" xlink:href="#ap" id="e"/><path d="M513 14c-232 0-385-159-385-421v-711h300v659c0 139 76 222 202 222 127 0 217-86 217-234v-647h301V0H864l-4-232C797-74 683 14 513 14" id="aq"/><path d="M428-647V0H128v-1490h294v586c65-146 175-228 341-228 232 0 385 159 385 421V0H847v-659c0-139-76-222-202-222-128 0-217 86-217 234" id="ar"/><g id="f"><use transform="matrix(0.010850694444444444,0,0,0.010850694444444444,0,0)" xlink:href="#ap"/><use transform="matrix(0.010850694444444444,0,0,0.010850694444444444,16.590711805555554,0)" xlink:href="#aq"/><use transform="matrix(0.010850694444444444,0,0,0.010850694444444444,30.42534722222222,0)" xlink:href="#ak"/><use transform="matrix(0.010850694444444444,0,0,0.010850694444444444,38.61762152777778,0)" xlink:href="#ar"/><use transform="matrix(0.010850694444444444,0,0,0.010850694444444444,52.45225694444444,0)" xlink:href="#af"/><use transform="matrix(0.010850694444444444,0,0,0.010850694444444444,65.69010416666666,0)" xlink:href="#ac"/><use transform="matrix(0.010850694444444444,0,0,0.010850694444444444,79.52473958333333,0)" xlink:href="#ak"/><use transform="matrix(0.010850694444444444,0,0,0.010850694444444444,87.66276041666666,0)" xlink:href="#al"/><use transform="matrix(0.010850694444444444,0,0,0.010850694444444444,93.68489583333333,0)" xlink:href="#aj"/><use transform="matrix(0.010850694444444444,0,0,0.010850694444444444,106.97699652777777,0)" xlink:href="#ab"/><use transform="matrix(0.010850694444444444,0,0,0.010850694444444444,119.87847222222221,0)" xlink:href="#ak"/><use transform="matrix(0.010850694444444444,0,0,0.010850694444444444,127.79947916666666,0)" xlink:href="#af"/></g><g id="g"><use transform="matrix(0.010850694444444444,0,0,0.010850694444444444,0,0)" xlink:href="#an"/><use transform="matrix(0.010850694444444444,0,0,0.010850694444444444,16.26519097222222,0)" xlink:href="#ai"/><use transform="matrix(0.010850694444444444,0,0,0.010850694444444444,28.7109375,0)" xlink:href="#af"/><use transform="matrix(0.010850694444444444,0,0,0.010850694444444444,41.94878472222222,0)" xlink:href="#ah"/></g><path d="M681 22C323 22 94-145 85-462h297c10 151 131 226 296 226 163 0 271-77 271-190 0-102-95-149-257-189l-164-41c-252-61-403-188-403-405 0-269 236-449 560-449 330 0 546 183 551 445H941c-11-119-106-188-259-188-156 0-244 72-244 172-3 156 226 185 373 221 250 61 445 186 445 436 0 271-213 446-575 446" id="as"/><g id="h"><use transform="matrix(0.010850694444444444,0,0,0.010850694444444444,0,0)" xlink:href="#as"/><use transform="matrix(0.010850694444444444,0,0,0.010850694444444444,14.55078125,0)" xlink:href="#af"/><use transform="matrix(0.010850694444444444,0,0,0.010850694444444444,27.78862847222222,0)" xlink:href="#ae"/><use transform="matrix(0.010850694444444444,0,0,0.010850694444444444,33.810763888888886,0)" xlink:href="#af"/><use transform="matrix(0.010850694444444444,0,0,0.010850694444444444,47.04861111111111,0)" xlink:href="#aj"/><use transform="matrix(0.010850694444444444,0,0,0.010850694444444444,60.123697916666664,0)" xlink:href="#ak"/></g><g id="i"><use transform="matrix(0.010850694444444444,0,0,0.010850694444444444,0,0)" xlink:href="#ag"/><use transform="matrix(0.010850694444444444,0,0,0.010850694444444444,13.57421875,0)" xlink:href="#ah"/><use transform="matrix(0.010850694444444444,0,0,0.010850694444444444,22.31987847222222,0)" xlink:href="#ab"/><use transform="matrix(0.010850694444444444,0,0,0.010850694444444444,35.221354166666664,0)" xlink:href="#ac"/><use transform="matrix(0.010850694444444444,0,0,0.010850694444444444,49.05598958333333,0)" xlink:href="#ai"/><use transform="matrix(0.010850694444444444,0,0,0.010850694444444444,61.50173611111111,0)" xlink:href="#ab"/><use transform="matrix(0.010850694444444444,0,0,0.010850694444444444,74.40321180555556,0)" xlink:href="#aj"/><use transform="matrix(0.010850694444444444,0,0,0.010850694444444444,87.47829861111111,0)" xlink:href="#ak"/><use transform="matrix(0.010850694444444444,0,0,0.010850694444444444,95.61631944444444,0)" xlink:href="#al"/><use transform="matrix(0.010850694444444444,0,0,0.010850694444444444,101.63845486111111,0)" xlink:href="#am"/><use transform="matrix(0.010850694444444444,0,0,0.010850694444444444,115.26692708333334,0)" xlink:href="#ac"/></g><path d="M120 396l69-226c123 42 245 23 254-107l8-60L31-1118h319c87 288 199 559 259 872 72-308 185-583 277-872h315L726 132c-68 181-186 294-410 294-79 0-153-13-196-30" id="at"/><path d="M128 418v-1536h295v188h14c41-89 129-202 319-202 248 0 453 193 453 575 0 372-197 576-455 576-183 0-275-108-317-198h-9v597H128zm534-640c156 0 240-139 240-336 0-196-83-334-240-334-154 0-241 131-241 334 0 202 88 336 241 336" id="au"/><g id="j"><use transform="matrix(0.010850694444444444,0,0,0.010850694444444444,0,0)" xlink:href="#ag"/><use transform="matrix(0.010850694444444444,0,0,0.010850694444444444,13.444010416666666,0)" xlink:href="#at"/><use transform="matrix(0.010850694444444444,0,0,0.010850694444444444,26.822916666666664,0)" xlink:href="#au"/><use transform="matrix(0.010850694444444444,0,0,0.010850694444444444,40.83116319444444,0)" xlink:href="#af"/></g><g id="k"><use transform="matrix(0.010850694444444444,0,0,0.010850694444444444,0,0)" xlink:href="#as"/><use transform="matrix(0.010850694444444444,0,0,0.010850694444444444,14.55078125,0)" xlink:href="#af"/><use transform="matrix(0.010850694444444444,0,0,0.010850694444444444,27.78862847222222,0)" xlink:href="#ac"/><use transform="matrix(0.010850694444444444,0,0,0.010850694444444444,41.623263888888886,0)" xlink:href="#ad"/></g><g id="l"><use transform="matrix(0.010850694444444444,0,0,0.010850694444444444,0,0)" xlink:href="#ap"/><use transform="matrix(0.010850694444444444,0,0,0.010850694444444444,16.590711805555554,0)" xlink:href="#aq"/><use transform="matrix(0.010850694444444444,0,0,0.010850694444444444,30.42534722222222,0)" xlink:href="#ak"/><use transform="matrix(0.010850694444444444,0,0,0.010850694444444444,38.61762152777778,0)" xlink:href="#ar"/><use transform="matrix(0.010850694444444444,0,0,0.010850694444444444,52.45225694444444,0)" xlink:href="#af"/><use transform="matrix(0.010850694444444444,0,0,0.010850694444444444,65.69010416666666,0)" xlink:href="#ac"/><use transform="matrix(0.010850694444444444,0,0,0.010850694444444444,79.52473958333333,0)" xlink:href="#ak"/><use transform="matrix(0.010850694444444444,0,0,0.010850694444444444,87.66276041666666,0)" xlink:href="#al"/><use transform="matrix(0.010850694444444444,0,0,0.010850694444444444,93.68489583333333,0)" xlink:href="#aj"/><use transform="matrix(0.010850694444444444,0,0,0.010850694444444444,106.97699652777777,0)" xlink:href="#ab"/><use transform="matrix(0.010850694444444444,0,0,0.010850694444444444,119.87847222222221,0)" xlink:href="#ak"/><use transform="matrix(0.010850694444444444,0,0,0.010850694444444444,128.01649305555554,0)" xlink:href="#al"/><use transform="matrix(0.010850694444444444,0,0,0.010850694444444444,134.0386284722222,0)" xlink:href="#am"/><use transform="matrix(0.010850694444444444,0,0,0.010850694444444444,147.66710069444443,0)" xlink:href="#ac"/></g><path d="M135 0v-1490h997v253H440v360h640v249H440v375h694V0H135" id="av"/><path d="M128 0v-1118h278l12 217c60-163 185-234 319-234 143 0 236 81 288 251 63-172 205-251 359-251 205 0 357 138 357 381V0h-301v-697c0-126-76-187-177-187-114 0-184 79-184 196V0H789v-705c0-109-72-179-174-179-106 0-187 74-187 208V0H128" id="aw"/><g id="m"><use transform="matrix(0.010850694444444444,0,0,0.010850694444444444,0,0)" xlink:href="#av"/><use transform="matrix(0.010850694444444444,0,0,0.010850694444444444,13.49826388888889,0)" xlink:href="#aw"/><use transform="matrix(0.010850694444444444,0,0,0.010850694444444444,33.77821180555556,0)" xlink:href="#ab"/><use transform="matrix(0.010850694444444444,0,0,0.010850694444444444,46.6796875,0)" xlink:href="#al"/><use transform="matrix(0.010850694444444444,0,0,0.010850694444444444,52.701822916666664,0)" xlink:href="#ae"/></g><path d="M571 0L49-1490h339c138 427 271 775 384 1244 111-471 237-815 371-1244h337L970 0H571" id="ax"/><path d="M750-1118v229H516V0H217v-889H20v-229h197v-86c0-238 156-356 363-356 94 0 178 20 215 31l-54 226c-25-7-61-15-100-15-123-3-131 84-125 200h234" id="ay"/><g id="n"><use transform="matrix(0.010850694444444444,0,0,0.010850694444444444,0,0)" xlink:href="#ax"/><use transform="matrix(0.010850694444444444,0,0,0.010850694444444444,15.234374999999996,0)" xlink:href="#af"/><use transform="matrix(0.010850694444444444,0,0,0.010850694444444444,28.47222222222222,0)" xlink:href="#ah"/><use transform="matrix(0.010850694444444444,0,0,0.010850694444444444,37.68446180555556,0)" xlink:href="#al"/><use transform="matrix(0.010850694444444444,0,0,0.010850694444444444,43.70659722222222,0)" xlink:href="#ay"/><use transform="matrix(0.010850694444444444,0,0,0.010850694444444444,52.54991319444444,0)" xlink:href="#at"/></g><g id="o"><use transform="matrix(0.010850694444444444,0,0,0.010850694444444444,0,0)" xlink:href="#ap"/><use transform="matrix(0.010850694444444444,0,0,0.010850694444444444,16.590711805555554,0)" xlink:href="#aq"/><use transform="matrix(0.010850694444444444,0,0,0.010850694444444444,30.42534722222222,0)" xlink:href="#ak"/><use transform="matrix(0.010850694444444444,0,0,0.010850694444444444,38.61762152777778,0)" xlink:href="#ar"/><use transform="matrix(0.010850694444444444,0,0,0.010850694444444444,52.45225694444444,0)" xlink:href="#af"/><use transform="matrix(0.010850694444444444,0,0,0.010850694444444444,65.69010416666666,0)" xlink:href="#ac"/><use transform="matrix(0.010850694444444444,0,0,0.010850694444444444,79.52473958333333,0)" xlink:href="#ak"/><use transform="matrix(0.010850694444444444,0,0,0.010850694444444444,87.66276041666666,0)" xlink:href="#al"/><use transform="matrix(0.010850694444444444,0,0,0.010850694444444444,93.68489583333333,0)" xlink:href="#aj"/><use transform="matrix(0.010850694444444444,0,0,0.010850694444444444,106.97699652777777,0)" xlink:href="#ab"/><use transform="matrix(0.010850694444444444,0,0,0.010850694444444444,119.87847222222221,0)" xlink:href="#ak"/><use transform="matrix(0.010850694444444444,0,0,0.010850694444444444,128.01649305555554,0)" xlink:href="#al"/><use transform="matrix(0.010850694444444444,0,0,0.010850694444444444,134.0386284722222,0)" xlink:href="#am"/><use transform="matrix(0.010850694444444444,0,0,0.010850694444444444,147.66710069444443,0)" xlink:href="#ac"/></g><path d="M135 0v-1490h581c339 0 533 192 533 485 0 204-94 351-264 424L1302 0H964L680-532H440V0H135zm305-779h220c186 0 274-77 274-226 0-150-88-233-275-233H440v459" id="az"/><g id="p"><use transform="matrix(0.010850694444444444,0,0,0.010850694444444444,0,0)" xlink:href="#az"/><use transform="matrix(0.010850694444444444,0,0,0.010850694444444444,14.322916666666666,0)" xlink:href="#af"/><use transform="matrix(0.010850694444444444,0,0,0.010850694444444444,27.56076388888889,0)" xlink:href="#ak"/><use transform="matrix(0.010850694444444444,0,0,0.010850694444444444,35.69878472222222,0)" xlink:href="#ah"/><use transform="matrix(0.010850694444444444,0,0,0.010850694444444444,45.09548611111111,0)" xlink:href="#at"/></g><path fill="#333" d="M601 0v-560L49-1490h357l252 464c38 68 67 130 97 208 96-243 225-446 337-672h356L905-560V0H601" id="aA"/><path fill="#333" d="M633 22C291 22 81-200 81-553c0-345 210-579 537-579 292 0 525 185 525 567v84H378c7 183 109 277 260 277 105 0 184-46 216-132l272 51C1071-99 893 22 633 22zM380-669h474c-15-146-94-237-233-237-143 0-229 99-241 237" id="aB"/><path fill="#333" d="M572 22C302 22 117-98 78-306l279-48c29 105 101 156 224 156 114 0 185-48 185-115 0-118-228-130-337-155-215-49-322-150-322-317 0-215 187-347 470-347 265 0 424 116 466 298l-266 47c-24-76-87-130-196-130-98 0-174 46-174 113 0 56 38 95 144 117l201 40c216 44 320 143 320 302 0 220-207 367-500 367" id="aC"/><g id="q"><use transform="matrix(0.008680555555555556,0,0,0.008680555555555556,0,0)" xlink:href="#aA"/><use transform="matrix(0.008680555555555556,0,0,0.008680555555555556,11.050347222222223,0)" xlink:href="#aB"/><use transform="matrix(0.008680555555555556,0,0,0.008680555555555556,21.640625,0)" xlink:href="#aC"/></g><path fill="#333" d="M135 0v-1490h340l471 754c59 97 122 210 187 365-32-387-14-721-19-1119h312V0h-341C855-382 627-689 427-1113c32 420 16 695 20 1113H135" id="aD"/><path fill="#333" d="M628 22C291 22 81-210 81-554c0-346 210-578 547-578 336 0 547 232 547 578 0 344-211 576-547 576zm0-236c160 0 242-146 242-341 0-197-82-341-242-341S387-753 387-555c0 195 81 341 241 341" id="aE"/><g id="r"><use transform="matrix(0.008680555555555556,0,0,0.008680555555555556,0,0)" xlink:href="#aD"/><use transform="matrix(0.008680555555555556,0,0,0.008680555555555556,13.550347222222223,0)" xlink:href="#aE"/></g><path d="M786 20C389 20 94-260 94-744c0-487 299-766 692-766 339 0 597 194 641 529h-309c-28-162-156-258-326-258-233 0-388 179-388 495 0 323 157 493 387 493 170 0 298-97 328-259h309c-34 277-266 530-642 530" id="aF"/><g id="s"><use transform="matrix(0.010850694444444444,0,0,0.010850694444444444,0,0)" xlink:href="#aF"/><use transform="matrix(0.010850694444444444,0,0,0.010850694444444444,16.438802083333332,0)" xlink:href="#ah"/><use transform="matrix(0.010850694444444444,0,0,0.010850694444444444,24.94574652777778,0)" xlink:href="#af"/><use transform="matrix(0.010850694444444444,0,0,0.010850694444444444,38.18359375,0)" xlink:href="#ad"/><use transform="matrix(0.010850694444444444,0,0,0.010850694444444444,52.19184027777778,0)" xlink:href="#al"/><use transform="matrix(0.010850694444444444,0,0,0.010850694444444444,58.21397569444444,0)" xlink:href="#ak"/></g><g id="t"><use transform="matrix(0.010850694444444444,0,0,0.010850694444444444,0,0)" xlink:href="#ax"/><use transform="matrix(0.010850694444444444,0,0,0.010850694444444444,16.590711805555554,0)" xlink:href="#al"/><use transform="matrix(0.010850694444444444,0,0,0.010850694444444444,22.61284722222222,0)" xlink:href="#ah"/><use transform="matrix(0.010850694444444444,0,0,0.010850694444444444,32.096354166666664,0)" xlink:href="#ak"/><use transform="matrix(0.010850694444444444,0,0,0.010850694444444444,40.234375,0)" xlink:href="#aq"/><use transform="matrix(0.010850694444444444,0,0,0.010850694444444444,54.069010416666664,0)" xlink:href="#ab"/><use transform="matrix(0.010850694444444444,0,0,0.010850694444444444,66.97048611111111,0)" xlink:href="#ae"/></g><g id="u"><use transform="matrix(0.010850694444444444,0,0,0.010850694444444444,0,0)" xlink:href="#ap"/><use transform="matrix(0.010850694444444444,0,0,0.010850694444444444,16.080729166666664,0)" xlink:href="#aj"/><use transform="matrix(0.010850694444444444,0,0,0.010850694444444444,29.15581597222222,0)" xlink:href="#aj"/><use transform="matrix(0.010850694444444444,0,0,0.010850694444444444,42.23090277777778,0)" xlink:href="#am"/><use transform="matrix(0.010850694444444444,0,0,0.010850694444444444,55.859375,0)" xlink:href="#aq"/><use transform="matrix(0.010850694444444444,0,0,0.010850694444444444,69.69401041666667,0)" xlink:href="#ac"/><use transform="matrix(0.010850694444444444,0,0,0.010850694444444444,83.52864583333334,0)" xlink:href="#ak"/></g><g id="v"><use transform="matrix(0.010850694444444444,0,0,0.010850694444444444,0,0)" xlink:href="#ag"/><use transform="matrix(0.010850694444444444,0,0,0.010850694444444444,13.57421875,0)" xlink:href="#ah"/><use transform="matrix(0.010850694444444444,0,0,0.010850694444444444,22.31987847222222,0)" xlink:href="#ab"/><use transform="matrix(0.010850694444444444,0,0,0.010850694444444444,35.221354166666664,0)" xlink:href="#ac"/><use transform="matrix(0.010850694444444444,0,0,0.010850694444444444,49.05598958333333,0)" xlink:href="#ai"/><use transform="matrix(0.010850694444444444,0,0,0.010850694444444444,61.50173611111111,0)" xlink:href="#ab"/><use transform="matrix(0.010850694444444444,0,0,0.010850694444444444,74.40321180555556,0)" xlink:href="#aj"/><use transform="matrix(0.010850694444444444,0,0,0.010850694444444444,87.47829861111111,0)" xlink:href="#ak"/><use transform="matrix(0.010850694444444444,0,0,0.010850694444444444,95.61631944444444,0)" xlink:href="#al"/><use transform="matrix(0.010850694444444444,0,0,0.010850694444444444,101.63845486111111,0)" xlink:href="#am"/><use transform="matrix(0.010850694444444444,0,0,0.010850694444444444,115.26692708333334,0)" xlink:href="#ac"/></g><path d="M440-1490V0H135v-1490h305" id="aG"/><g id="w"><use transform="matrix(0.010850694444444444,0,0,0.010850694444444444,0,0)" xlink:href="#aG"/><use transform="matrix(0.010850694444444444,0,0,0.010850694444444444,6.239149305555555,0)" xlink:href="#ac"/><use transform="matrix(0.010850694444444444,0,0,0.010850694444444444,20.07378472222222,0)" xlink:href="#au"/><use transform="matrix(0.010850694444444444,0,0,0.010850694444444444,34.08203125,0)" xlink:href="#aq"/><use transform="matrix(0.010850694444444444,0,0,0.010850694444444444,47.916666666666664,0)" xlink:href="#ak"/></g><g id="x"><use transform="matrix(0.010850694444444444,0,0,0.010850694444444444,0,0)" xlink:href="#aF"/><use transform="matrix(0.010850694444444444,0,0,0.010850694444444444,16.438802083333332,0)" xlink:href="#ah"/><use transform="matrix(0.010850694444444444,0,0,0.010850694444444444,24.94574652777778,0)" xlink:href="#af"/><use transform="matrix(0.010850694444444444,0,0,0.010850694444444444,38.18359375,0)" xlink:href="#ad"/><use transform="matrix(0.010850694444444444,0,0,0.010850694444444444,52.19184027777778,0)" xlink:href="#al"/><use transform="matrix(0.010850694444444444,0,0,0.010850694444444444,58.21397569444444,0)" xlink:href="#ak"/></g><g id="y"><use transform="matrix(0.010850694444444444,0,0,0.010850694444444444,0,0)" xlink:href="#aF"/><use transform="matrix(0.010850694444444444,0,0,0.010850694444444444,16.438802083333332,0)" xlink:href="#ab"/><use transform="matrix(0.010850694444444444,0,0,0.010850694444444444,29.340277777777775,0)" xlink:href="#ah"/><use transform="matrix(0.010850694444444444,0,0,0.010850694444444444,37.84722222222222,0)" xlink:href="#ad"/></g><path d="M659 0H135v-1490h529c448 0 721 280 721 744 0 466-273 746-726 746zM440-263h204c287 0 437-148 437-483 0-333-150-481-435-481H440v964" id="aH"/><g id="z"><use transform="matrix(0.010850694444444444,0,0,0.010850694444444444,0,0)" xlink:href="#aH"/><use transform="matrix(0.010850694444444444,0,0,0.010850694444444444,16.048177083333332,0)" xlink:href="#af"/><use transform="matrix(0.010850694444444444,0,0,0.010850694444444444,29.286024305555554,0)" xlink:href="#ak"/><use transform="matrix(0.010850694444444444,0,0,0.010850694444444444,37.53255208333333,0)" xlink:href="#ab"/><use transform="matrix(0.010850694444444444,0,0,0.010850694444444444,50.43402777777778,0)" xlink:href="#al"/><use transform="matrix(0.010850694444444444,0,0,0.010850694444444444,56.456163194444436,0)" xlink:href="#ae"/></g><g id="A"><use transform="matrix(0.010850694444444444,0,0,0.010850694444444444,0,0)" xlink:href="#aF"/><use transform="matrix(0.010850694444444444,0,0,0.010850694444444444,16.438802083333332,0)" xlink:href="#ar"/><use transform="matrix(0.010850694444444444,0,0,0.010850694444444444,30.2734375,0)" xlink:href="#am"/><use transform="matrix(0.010850694444444444,0,0,0.010850694444444444,43.90190972222222,0)" xlink:href="#am"/><use transform="matrix(0.010850694444444444,0,0,0.010850694444444444,57.53038194444444,0)" xlink:href="#ai"/><use transform="matrix(0.010850694444444444,0,0,0.010850694444444444,69.97612847222221,0)" xlink:href="#af"/></g><path d="M135 0v-1490h591c327 0 492 160 492 383 0 177-115 286-268 320v15c168 8 326 140 326 361 0 236-176 411-512 411H135zm305-251h264c179 0 258-76 258-189 0-125-97-215-250-215H440v404zm0-613h241c131 0 228-74 228-194 0-109-79-183-222-183H440v377" id="aI"/><path d="M128 0v-1490h300v802h17l366-430h347L740-633 1179 0H826L514-456l-86 97V0H128" id="aJ"/><g id="B"><use transform="matrix(0.010850694444444444,0,0,0.010850694444444444,0,0)" xlink:href="#aI"/><use transform="matrix(0.010850694444444444,0,0,0.010850694444444444,14.702690972222221,0)" xlink:href="#ab"/><use transform="matrix(0.010850694444444444,0,0,0.010850694444444444,27.604166666666664,0)" xlink:href="#ac"/><use transform="matrix(0.010850694444444444,0,0,0.010850694444444444,41.43880208333333,0)" xlink:href="#aJ"/></g><g id="C"><use transform="matrix(0.010850694444444444,0,0,0.010850694444444444,0,0)" xlink:href="#aF"/><use transform="matrix(0.010850694444444444,0,0,0.010850694444444444,16.438802083333332,0)" xlink:href="#ar"/><use transform="matrix(0.010850694444444444,0,0,0.010850694444444444,30.2734375,0)" xlink:href="#af"/><use transform="matrix(0.010850694444444444,0,0,0.010850694444444444,43.51128472222222,0)" xlink:href="#aj"/><use transform="matrix(0.010850694444444444,0,0,0.010850694444444444,56.58637152777778,0)" xlink:href="#aJ"/></g><g id="D"><use transform="matrix(0.010850694444444444,0,0,0.010850694444444444,0,0)" xlink:href="#aI"/><use transform="matrix(0.010850694444444444,0,0,0.010850694444444444,14.702690972222221,0)" xlink:href="#ab"/><use transform="matrix(0.010850694444444444,0,0,0.010850694444444444,27.604166666666664,0)" xlink:href="#ae"/><use transform="matrix(0.010850694444444444,0,0,0.010850694444444444,33.62630208333333,0)" xlink:href="#ab"/><use transform="matrix(0.010850694444444444,0,0,0.010850694444444444,46.52777777777778,0)" xlink:href="#ac"/><use transform="matrix(0.010850694444444444,0,0,0.010850694444444444,60.362413194444436,0)" xlink:href="#aj"/><use transform="matrix(0.010850694444444444,0,0,0.010850694444444444,73.43749999999999,0)" xlink:href="#af"/></g><path d="M135 0v-1490h581c339 0 533 210 533 503 0 295-197 500-540 500H440V0H135zm305-733h220c186 0 274-104 274-254s-88-251-275-251H440v505" id="aK"/><g id="E"><use transform="matrix(0.010850694444444444,0,0,0.010850694444444444,0,0)" xlink:href="#aK"/><use transform="matrix(0.010850694444444444,0,0,0.010850694444444444,14.398871527777777,0)" xlink:href="#ah"/><use transform="matrix(0.010850694444444444,0,0,0.010850694444444444,22.90581597222222,0)" xlink:href="#am"/><use transform="matrix(0.010850694444444444,0,0,0.010850694444444444,36.53428819444444,0)" xlink:href="#aj"/><use transform="matrix(0.010850694444444444,0,0,0.010850694444444444,49.609375,0)" xlink:href="#af"/><use transform="matrix(0.010850694444444444,0,0,0.010850694444444444,62.84722222222222,0)" xlink:href="#ai"/><use transform="matrix(0.010850694444444444,0,0,0.010850694444444444,75.29296875,0)" xlink:href="#ai"/></g><g id="F"><use transform="matrix(0.010850694444444444,0,0,0.010850694444444444,0,0)" xlink:href="#az"/><use transform="matrix(0.010850694444444444,0,0,0.010850694444444444,14.322916666666666,0)" xlink:href="#af"/><use transform="matrix(0.010850694444444444,0,0,0.010850694444444444,27.56076388888889,0)" xlink:href="#ak"/><use transform="matrix(0.010850694444444444,0,0,0.010850694444444444,35.69878472222222,0)" xlink:href="#ah"/><use transform="matrix(0.010850694444444444,0,0,0.010850694444444444,45.09548611111111,0)" xlink:href="#at"/></g><g id="G"><use transform="matrix(0.010850694444444444,0,0,0.010850694444444444,0,0)" xlink:href="#as"/><use transform="matrix(0.010850694444444444,0,0,0.010850694444444444,14.55078125,0)" xlink:href="#af"/><use transform="matrix(0.010850694444444444,0,0,0.010850694444444444,27.78862847222222,0)" xlink:href="#ae"/><use transform="matrix(0.010850694444444444,0,0,0.010850694444444444,33.810763888888886,0)" xlink:href="#af"/><use transform="matrix(0.010850694444444444,0,0,0.010850694444444444,47.04861111111111,0)" xlink:href="#aj"/><use transform="matrix(0.010850694444444444,0,0,0.010850694444444444,60.123697916666664,0)" xlink:href="#ak"/></g><g id="H"><use transform="matrix(0.010850694444444444,0,0,0.010850694444444444,0,0)" xlink:href="#ag"/><use transform="matrix(0.010850694444444444,0,0,0.010850694444444444,13.57421875,0)" xlink:href="#ah"/><use transform="matrix(0.010850694444444444,0,0,0.010850694444444444,22.31987847222222,0)" xlink:href="#ab"/><use transform="matrix(0.010850694444444444,0,0,0.010850694444444444,35.221354166666664,0)" xlink:href="#ac"/><use transform="matrix(0.010850694444444444,0,0,0.010850694444444444,49.05598958333333,0)" xlink:href="#ai"/><use transform="matrix(0.010850694444444444,0,0,0.010850694444444444,61.50173611111111,0)" xlink:href="#ab"/><use transform="matrix(0.010850694444444444,0,0,0.010850694444444444,74.40321180555556,0)" xlink:href="#aj"/><use transform="matrix(0.010850694444444444,0,0,0.010850694444444444,87.47829861111111,0)" xlink:href="#ak"/><use transform="matrix(0.010850694444444444,0,0,0.010850694444444444,95.61631944444444,0)" xlink:href="#al"/><use transform="matrix(0.010850694444444444,0,0,0.010850694444444444,101.63845486111111,0)" xlink:href="#am"/><use transform="matrix(0.010850694444444444,0,0,0.010850694444444444,115.26692708333334,0)" xlink:href="#ac"/></g><g id="I"><use transform="matrix(0.010850694444444444,0,0,0.010850694444444444,0,0)" xlink:href="#an"/><use transform="matrix(0.010850694444444444,0,0,0.010850694444444444,16.26519097222222,0)" xlink:href="#au"/><use transform="matrix(0.010850694444444444,0,0,0.010850694444444444,30.2734375,0)" xlink:href="#ad"/><use transform="matrix(0.010850694444444444,0,0,0.010850694444444444,44.28168402777778,0)" xlink:href="#ab"/><use transform="matrix(0.010850694444444444,0,0,0.010850694444444444,57.18315972222222,0)" xlink:href="#ak"/><use transform="matrix(0.010850694444444444,0,0,0.010850694444444444,65.10416666666667,0)" xlink:href="#af"/></g><g id="J"><use transform="matrix(0.010850694444444444,0,0,0.010850694444444444,0,0)" xlink:href="#az"/><use transform="matrix(0.010850694444444444,0,0,0.010850694444444444,14.322916666666666,0)" xlink:href="#af"/><use transform="matrix(0.010850694444444444,0,0,0.010850694444444444,27.56076388888889,0)" xlink:href="#aj"/><use transform="matrix(0.010850694444444444,0,0,0.010850694444444444,40.63585069444444,0)" xlink:href="#am"/><use transform="matrix(0.010850694444444444,0,0,0.010850694444444444,54.264322916666664,0)" xlink:href="#ah"/><use transform="matrix(0.010850694444444444,0,0,0.010850694444444444,62.77126736111111,0)" xlink:href="#ad"/></g><g id="K"><use transform="matrix(0.010850694444444444,0,0,0.010850694444444444,0,0)" xlink:href="#ak"/><use transform="matrix(0.010850694444444444,0,0,0.010850694444444444,8.138020833333334,0)" xlink:href="#ah"/><use transform="matrix(0.010850694444444444,0,0,0.010850694444444444,16.883680555555557,0)" xlink:href="#ab"/><use transform="matrix(0.010850694444444444,0,0,0.010850694444444444,29.78515625,0)" xlink:href="#ac"/><use transform="matrix(0.010850694444444444,0,0,0.010850694444444444,43.619791666666664,0)" xlink:href="#ai"/><use transform="matrix(0.010850694444444444,0,0,0.010850694444444444,56.06553819444444,0)" xlink:href="#ab"/><use transform="matrix(0.010850694444444444,0,0,0.010850694444444444,68.96701388888889,0)" xlink:href="#aj"/><use transform="matrix(0.010850694444444444,0,0,0.010850694444444444,82.04210069444444,0)" xlink:href="#ak"/><use transform="matrix(0.010850694444444444,0,0,0.010850694444444444,90.18012152777777,0)" xlink:href="#al"/><use transform="matrix(0.010850694444444444,0,0,0.010850694444444444,96.20225694444444,0)" xlink:href="#am"/><use transform="matrix(0.010850694444444444,0,0,0.010850694444444444,109.83072916666666,0)" xlink:href="#ac"/></g><g id="L"><use transform="matrix(0.010850694444444444,0,0,0.010850694444444444,0,0)" xlink:href="#ar"/><use transform="matrix(0.010850694444444444,0,0,0.010850694444444444,13.834635416666666,0)" xlink:href="#al"/><use transform="matrix(0.010850694444444444,0,0,0.010850694444444444,19.856770833333332,0)" xlink:href="#ai"/><use transform="matrix(0.010850694444444444,0,0,0.010850694444444444,32.30251736111111,0)" xlink:href="#ak"/><use transform="matrix(0.010850694444444444,0,0,0.010850694444444444,40.22352430555556,0)" xlink:href="#am"/><use transform="matrix(0.010850694444444444,0,0,0.010850694444444444,53.85199652777778,0)" xlink:href="#ah"/><use transform="matrix(0.010850694444444444,0,0,0.010850694444444444,63.248697916666664,0)" xlink:href="#at"/></g><g id="M"><use transform="matrix(0.010850694444444444,0,0,0.010850694444444444,0,0)" xlink:href="#aF"/><use transform="matrix(0.010850694444444444,0,0,0.010850694444444444,16.438802083333332,0)" xlink:href="#am"/><use transform="matrix(0.010850694444444444,0,0,0.010850694444444444,30.067274305555554,0)" xlink:href="#ac"/><use transform="matrix(0.010850694444444444,0,0,0.010850694444444444,43.90190972222222,0)" xlink:href="#ay"/><use transform="matrix(0.010850694444444444,0,0,0.010850694444444444,52.9296875,0)" xlink:href="#al"/><use transform="matrix(0.010850694444444444,0,0,0.010850694444444444,58.951822916666664,0)" xlink:href="#ah"/><use transform="matrix(0.010850694444444444,0,0,0.010850694444444444,68.1640625,0)" xlink:href="#aw"/></g><g id="N"><use transform="matrix(0.010850694444444444,0,0,0.010850694444444444,0,0)" xlink:href="#as"/><use transform="matrix(0.010850694444444444,0,0,0.010850694444444444,14.55078125,0)" xlink:href="#aq"/><use transform="matrix(0.010850694444444444,0,0,0.010850694444444444,28.385416666666664,0)" xlink:href="#aj"/><use transform="matrix(0.010850694444444444,0,0,0.010850694444444444,41.46050347222222,0)" xlink:href="#aj"/><use transform="matrix(0.010850694444444444,0,0,0.010850694444444444,54.53559027777778,0)" xlink:href="#af"/><use transform="matrix(0.010850694444444444,0,0,0.010850694444444444,67.7734375,0)" xlink:href="#ai"/><use transform="matrix(0.010850694444444444,0,0,0.010850694444444444,80.21918402777777,0)" xlink:href="#ai"/></g><g id="O"><use transform="matrix(0.010850694444444444,0,0,0.010850694444444444,0,0)" xlink:href="#aF"/><use transform="matrix(0.010850694444444444,0,0,0.010850694444444444,16.438802083333332,0)" xlink:href="#ar"/><use transform="matrix(0.010850694444444444,0,0,0.010850694444444444,30.2734375,0)" xlink:href="#af"/><use transform="matrix(0.010850694444444444,0,0,0.010850694444444444,43.51128472222222,0)" xlink:href="#aj"/><use transform="matrix(0.010850694444444444,0,0,0.010850694444444444,56.58637152777778,0)" xlink:href="#aJ"/></g><g id="P"><use transform="matrix(0.010850694444444444,0,0,0.010850694444444444,0,0)" xlink:href="#ay"/><use transform="matrix(0.010850694444444444,0,0,0.010850694444444444,8.365885416666666,0)" xlink:href="#am"/><use transform="matrix(0.010850694444444444,0,0,0.010850694444444444,21.994357638888886,0)" xlink:href="#ah"/></g><g id="Q"><use transform="matrix(0.010850694444444444,0,0,0.010850694444444444,0,0)" xlink:href="#aK"/><use transform="matrix(0.010850694444444444,0,0,0.010850694444444444,14.116753472222221,0)" xlink:href="#ab"/><use transform="matrix(0.010850694444444444,0,0,0.010850694444444444,26.63845486111111,0)" xlink:href="#at"/><use transform="matrix(0.010850694444444444,0,0,0.010850694444444444,40.017361111111114,0)" xlink:href="#aw"/><use transform="matrix(0.010850694444444444,0,0,0.010850694444444444,60.29730902777778,0)" xlink:href="#af"/><use transform="matrix(0.010850694444444444,0,0,0.010850694444444444,73.53515625,0)" xlink:href="#ac"/><use transform="matrix(0.010850694444444444,0,0,0.010850694444444444,87.36979166666667,0)" xlink:href="#ak"/></g><g id="R"><use transform="matrix(0.010850694444444444,0,0,0.010850694444444444,0,0)" xlink:href="#aF"/><use transform="matrix(0.010850694444444444,0,0,0.010850694444444444,16.438802083333332,0)" xlink:href="#am"/><use transform="matrix(0.010850694444444444,0,0,0.010850694444444444,30.067274305555554,0)" xlink:href="#ac"/><use transform="matrix(0.010850694444444444,0,0,0.010850694444444444,43.90190972222222,0)" xlink:href="#ay"/><use transform="matrix(0.010850694444444444,0,0,0.010850694444444444,52.9296875,0)" xlink:href="#al"/><use transform="matrix(0.010850694444444444,0,0,0.010850694444444444,58.951822916666664,0)" xlink:href="#ah"/><use transform="matrix(0.010850694444444444,0,0,0.010850694444444444,68.1640625,0)" xlink:href="#aw"/><use transform="matrix(0.010850694444444444,0,0,0.010850694444444444,88.44401041666666,0)" xlink:href="#ab"/><use transform="matrix(0.010850694444444444,0,0,0.010850694444444444,101.34548611111111,0)" xlink:href="#ak"/><use transform="matrix(0.010850694444444444,0,0,0.010850694444444444,109.48350694444441,0)" xlink:href="#al"/><use transform="matrix(0.010850694444444444,0,0,0.010850694444444444,115.5056423611111,0)" xlink:href="#am"/><use transform="matrix(0.010850694444444444,0,0,0.010850694444444444,129.13411458333331,0)" xlink:href="#ac"/></g><g id="S"><use transform="matrix(0.010850694444444444,0,0,0.010850694444444444,0,0)" xlink:href="#aK"/><use transform="matrix(0.010850694444444444,0,0,0.010850694444444444,14.116753472222221,0)" xlink:href="#ab"/><use transform="matrix(0.010850694444444444,0,0,0.010850694444444444,26.63845486111111,0)" xlink:href="#at"/><use transform="matrix(0.010850694444444444,0,0,0.010850694444444444,40.017361111111114,0)" xlink:href="#aw"/><use transform="matrix(0.010850694444444444,0,0,0.010850694444444444,60.29730902777778,0)" xlink:href="#af"/><use transform="matrix(0.010850694444444444,0,0,0.010850694444444444,73.53515625,0)" xlink:href="#ac"/><use transform="matrix(0.010850694444444444,0,0,0.010850694444444444,87.36979166666667,0)" xlink:href="#ak"/></g><path d="M449 0L49-1490h333c89 395 194 758 253 1185 65-426 176-790 269-1185h317c93 394 201 758 268 1181 60-425 164-788 253-1181h334L1675 0h-348c-90-376-204-711-266-1118C1004-714 886-373 798 0H449" id="aL"/><g id="T"><use transform="matrix(0.010850694444444444,0,0,0.010850694444444444,0,0)" xlink:href="#aL"/><use transform="matrix(0.010850694444444444,0,0,0.010850694444444444,21.77734375,0)" xlink:href="#ab"/><use transform="matrix(0.010850694444444444,0,0,0.010850694444444444,34.67881944444444,0)" xlink:href="#al"/><use transform="matrix(0.010850694444444444,0,0,0.010850694444444444,40.70095486111111,0)" xlink:href="#ak"/></g><g id="U"><use transform="matrix(0.010850694444444444,0,0,0.010850694444444444,0,0)" xlink:href="#aK"/><use transform="matrix(0.010850694444444444,0,0,0.010850694444444444,14.116753472222221,0)" xlink:href="#ab"/><use transform="matrix(0.010850694444444444,0,0,0.010850694444444444,26.63845486111111,0)" xlink:href="#at"/><use transform="matrix(0.010850694444444444,0,0,0.010850694444444444,40.017361111111114,0)" xlink:href="#aw"/><use transform="matrix(0.010850694444444444,0,0,0.010850694444444444,60.29730902777778,0)" xlink:href="#ac"/><use transform="matrix(0.010850694444444444,0,0,0.010850694444444444,74.13194444444444,0)" xlink:href="#ak"/></g><g id="V"><use transform="matrix(0.010850694444444444,0,0,0.010850694444444444,0,0)" xlink:href="#aF"/><use transform="matrix(0.010850694444444444,0,0,0.010850694444444444,16.438802083333332,0)" xlink:href="#am"/><use transform="matrix(0.010850694444444444,0,0,0.010850694444444444,30.067274305555554,0)" xlink:href="#ac"/><use transform="matrix(0.010850694444444444,0,0,0.010850694444444444,43.90190972222222,0)" xlink:href="#ay"/><use transform="matrix(0.010850694444444444,0,0,0.010850694444444444,52.9296875,0)" xlink:href="#al"/><use transform="matrix(0.010850694444444444,0,0,0.010850694444444444,58.951822916666664,0)" xlink:href="#ah"/><use transform="matrix(0.010850694444444444,0,0,0.010850694444444444,68.1640625,0)" xlink:href="#aw"/><use transform="matrix(0.010850694444444444,0,0,0.010850694444444444,88.44401041666666,0)" xlink:href="#ab"/><use transform="matrix(0.010850694444444444,0,0,0.010850694444444444,101.34548611111111,0)" xlink:href="#ak"/><use transform="matrix(0.010850694444444444,0,0,0.010850694444444444,109.48350694444441,0)" xlink:href="#al"/><use transform="matrix(0.010850694444444444,0,0,0.010850694444444444,115.5056423611111,0)" xlink:href="#am"/><use transform="matrix(0.010850694444444444,0,0,0.010850694444444444,129.13411458333331,0)" xlink:href="#ac"/></g><path d="M795 20C377 20 94-272 94-743c0-483 302-767 694-767 335 0 593 206 635 500h-310c-42-142-154-229-320-229-230 0-389 177-389 493s154 495 393 495c212 0 340-120 345-311H818v-232h620v186c0 391-269 628-643 628" id="aM"/><g id="W"><use transform="matrix(0.010850694444444444,0,0,0.010850694444444444,0,0)" xlink:href="#aM"/><use transform="matrix(0.010850694444444444,0,0,0.010850694444444444,16.67751736111111,0)" xlink:href="#af"/><use transform="matrix(0.010850694444444444,0,0,0.010850694444444444,29.915364583333332,0)" xlink:href="#ac"/><use transform="matrix(0.010850694444444444,0,0,0.010850694444444444,43.75,0)" xlink:href="#af"/><use transform="matrix(0.010850694444444444,0,0,0.010850694444444444,56.98784722222222,0)" xlink:href="#ah"/><use transform="matrix(0.010850694444444444,0,0,0.010850694444444444,65.73350694444444,0)" xlink:href="#ab"/><use transform="matrix(0.010850694444444444,0,0,0.010850694444444444,78.63498263888889,0)" xlink:href="#ak"/><use transform="matrix(0.010850694444444444,0,0,0.010850694444444444,86.55598958333333,0)" xlink:href="#af"/></g><g id="X"><use transform="matrix(0.010850694444444444,0,0,0.010850694444444444,0,0)" xlink:href="#ax"/><use transform="matrix(0.010850694444444444,0,0,0.010850694444444444,16.590711805555554,0)" xlink:href="#al"/><use transform="matrix(0.010850694444444444,0,0,0.010850694444444444,22.61284722222222,0)" xlink:href="#ah"/><use transform="matrix(0.010850694444444444,0,0,0.010850694444444444,32.096354166666664,0)" xlink:href="#ak"/><use transform="matrix(0.010850694444444444,0,0,0.010850694444444444,40.234375,0)" xlink:href="#aq"/><use transform="matrix(0.010850694444444444,0,0,0.010850694444444444,54.069010416666664,0)" xlink:href="#ab"/><use transform="matrix(0.010850694444444444,0,0,0.010850694444444444,66.97048611111111,0)" xlink:href="#ae"/></g><g id="Y"><use transform="matrix(0.010850694444444444,0,0,0.010850694444444444,0,0)" xlink:href="#ap"/><use transform="matrix(0.010850694444444444,0,0,0.010850694444444444,16.080729166666664,0)" xlink:href="#aj"/><use transform="matrix(0.010850694444444444,0,0,0.010850694444444444,29.15581597222222,0)" xlink:href="#aj"/><use transform="matrix(0.010850694444444444,0,0,0.010850694444444444,42.23090277777778,0)" xlink:href="#am"/><use transform="matrix(0.010850694444444444,0,0,0.010850694444444444,55.859375,0)" xlink:href="#aq"/><use transform="matrix(0.010850694444444444,0,0,0.010850694444444444,69.69401041666667,0)" xlink:href="#ac"/><use transform="matrix(0.010850694444444444,0,0,0.010850694444444444,83.52864583333334,0)" xlink:href="#ak"/></g><path d="M135 0v-1490h340l471 754c59 97 122 210 187 365-32-387-14-721-19-1119h312V0h-341C855-382 627-689 427-1113c32 420 16 695 20 1113H135" id="aN"/><path d="M754 19C571 19 479-89 437-179h-14V0H128v-1490h300v560h9c41-89 129-202 319-202 248 0 453 193 453 575 0 372-197 576-455 576zm-92-241c156 0 240-139 240-336 0-196-83-334-240-334-154 0-241 131-241 334 0 202 88 336 241 336" id="aO"/><g id="Z"><use transform="matrix(0.010850694444444444,0,0,0.010850694444444444,0,0)" xlink:href="#aN"/><use transform="matrix(0.010850694444444444,0,0,0.010850694444444444,16.93793402777778,0)" xlink:href="#aq"/><use transform="matrix(0.010850694444444444,0,0,0.010850694444444444,30.772569444444443,0)" xlink:href="#aw"/><use transform="matrix(0.010850694444444444,0,0,0.010850694444444444,51.05251736111111,0)" xlink:href="#aO"/><use transform="matrix(0.010850694444444444,0,0,0.010850694444444444,65.06076388888889,0)" xlink:href="#af"/><use transform="matrix(0.010850694444444444,0,0,0.010850694444444444,78.29861111111111,0)" xlink:href="#ah"/></g></defs></g></svg>