<svg xmlns="http://www.w3.org/2000/svg" xmlns:xlink="http://www.w3.org/1999/xlink" xmlns:lucid="lucid" width="1600" height="2410"><g transform="translate(265 425)" lucid:page-tab-id="0_0"><path d="M-500-500h2000v2500H-500z" fill="#fff"/><path d="M-260-378.1V-414a6 6 0 0 1 6-6h1578a6 6 0 0 1 6 6v35.9z" stroke="#3a414a" stroke-width="10" fill="#fff0fb"/><path d="M-260-336.22v-41.9h665v41.9M405-336.22v-41.9h925v41.9" stroke="#3a414a" stroke-width="10" fill="#fff0fb"/><path d="M405 1980h-659a6 6 0 0 1-6-6V-336.22h665zM1330-336.22V1974a6 6 0 0 1-6 6H405V-336.22z" stroke="#3a414a" stroke-width="10" fill="none"/><use xlink:href="#a" transform="matrix(1,0,0,1,-260,-420) translate(691.0232204861111 29.08376736111111)"/><use xlink:href="#b" transform="matrix(1,0,0,1,-260,-420) translate(746.8608940972222 29.08376736111111)"/><use xlink:href="#c" transform="matrix(1,0,0,1,-260,-378.1119791666667) translate(307.70616319444446 29.08376736111111)"/><use xlink:href="#d" transform="matrix(1,0,0,1,405,-378.1119791666667) translate(423.52430555555554 29.08376736111111)"/><path d="M810-214a6 6 0 0 1 6-6h148a6 6 0 0 1 6 6v108a6 6 0 0 1-6 6H816a6 6 0 0 1-6-6z" stroke="#3a414a" stroke-width="10" fill-opacity="0"/><use xlink:href="#e" transform="matrix(1,0,0,1,810,-220) translate(47.03559027777778 55.27777777777778)"/><use xlink:href="#f" transform="matrix(1,0,0,1,810,-220) translate(17.60308159722222 82.16579861111111)"/><path d="M270-160h263.85a1.15 1.15 0 0 0 1.15-1.15 1.15 1.15 0 0 1 1.15-1.16h233.4" stroke="#3a414a" stroke-width="10" fill="none"/><path d="M270.13-155.03H265v-9.94h5.13z" stroke="#3a414a" stroke-width=".05" fill="#3a414a"/><path d="M788.82-162.3l-14.27 4.63v-9.27z" stroke="#3a414a" stroke-width="10" fill="#3a414a"/><path d="M-160 1351a6 6 0 0 1 6-6H-6a6 6 0 0 1 6 6v108a6 6 0 0 1-6 6h-148a6 6 0 0 1-6-6z" stroke="#3a414a" stroke-width="10" fill-opacity="0"/><use xlink:href="#g" transform="matrix(1,0,0,1,-160,1344.9999500000013) translate(51.97265625 55.27777777777778)"/><use xlink:href="#f" transform="matrix(1,0,0,1,-160,1344.9999500000013) translate(17.60308159722222 82.16579861111111)"/><path d="M890-90v31.68" stroke="#3a414a" stroke-width="10" fill="none"/><path d="M894.98-89.87H885V-95H895z" stroke="#3a414a" stroke-width=".05" fill="#3a414a"/><path d="M890-39.05l-4.63-14.27h9.26z" stroke="#3a414a" stroke-width="10" fill="#3a414a"/><path d="M75.47 988.94a6.9 6.9 0 0 1 9.06 0l105.94 92.12a5.22 5.22 0 0 1 0 7.88l-105.94 92.12a6.9 6.9 0 0 1-9.06 0l-105.94-92.12a5.22 5.22 0 0 1 0-7.88z" stroke="#3a414a" stroke-width="10" fill-opacity="0"/><use xlink:href="#h" transform="matrix(1,0,0,1,-34.99999999999994,984.9999500000013) translate(64.13694444444445 65.53777777777778)"/><use xlink:href="#i" transform="matrix(1,0,0,1,-34.99999999999994,984.9999500000013) translate(35.09506076388889 92.4257986111111)"/><use xlink:href="#j" transform="matrix(1,0,0,1,-34.99999999999994,984.9999500000013) translate(55.440112847222224 92.4257986111111)"/><use xlink:href="#k" transform="matrix(1,0,0,1,-34.99999999999994,984.9999500000013) translate(111.70096354166667 92.4257986111111)"/><use xlink:href="#l" transform="matrix(1,0,0,1,-34.99999999999994,984.9999500000013) translate(33.99371527777778 119.31381944444445)"/><use xlink:href="#m" transform="matrix(1,0,0,1,-34.99999999999994,984.9999500000013) translate(97.73069444444444 119.31381944444445)"/><use xlink:href="#n" transform="matrix(1,0,0,1,-34.99999999999994,984.9999500000013) translate(125.67123263888888 119.31381944444445)"/><use xlink:href="#o" transform="matrix(1,0,0,1,-34.99999999999994,984.9999500000013) translate(61.6846875 146.2018402777778)"/><path d="M885.36-16.2a7.33 7.33 0 0 1 9.28 0l100.72 82.4a4.9 4.9 0 0 1 0 7.6l-100.72 82.4a7.33 7.33 0 0 1-9.28 0L784.64 73.8a4.9 4.9 0 0 1 0-7.6z" stroke="#000" stroke-width="10" fill-opacity="0"/><use xlink:href="#h" transform="matrix(1,0,0,1,780,-20) translate(59.136944444444445 66.52777777777777)"/><use xlink:href="#p" transform="matrix(1,0,0,1,780,-20) translate(65.85894965277778 93.41579861111111)"/><use xlink:href="#q" transform="matrix(1,0,0,1,780,-20) translate(47.60808159722222 120.30381944444446)"/><path d="M-78.06 1304.55H-88v-104.17h9.94zm35.78-214.58h-34.56l-.35.03-.15.04-.14.06-.13.08-.12.1-.1.13-.1.14-.05.15-.03.14-.03.36v87.67H-88v-88.07l.1-1.52.4-1.68.67-1.6.9-1.46 1.12-1.3 1.3-1.13 1.47-.9 1.6-.65 1.68-.4 1.52-.13h34.95z" stroke="#3a414a" stroke-width=".05" fill="#3a414a"/><path d="M-36.7 1081.57l-.43 1.7-.15 1.73.15 1.74.44 1.7.7 1.53h-6.4v-9.94h6.4z" fill="#3a414a"/><path stroke="#3a414a" stroke-width=".05" fill="#3a414a"/><path d="M-83.03 1323.82l-4.64-14.27h9.27z" fill="#3a414a"/><path d="M-83.03 1339.92l-11.5-35.34h22.98z" stroke="#3a414a" stroke-width=".05" fill="#3a414a"/><use xlink:href="#r" transform="matrix(1,0,0,1,-98.83399498125917,1178.8693335552541) translate(0.005000000000000782 17.22222222222222)"/><path d="M226.97 1304.55h-9.95v-93.65h9.95zm-9.26-224.4l1.7.4 1.58.66 1.47.9 1.3 1.13 1.13 1.3.9 1.48.66 1.6.4 1.68.13 1.52v98.6h-9.95v-98.2l-.03-.36-.05-.15-.06-.16-.1-.13-.1-.1-.1-.12-.15-.08-.14-.06-.15-.04-.35-.03h-13.52v-9.94h13.9z" stroke="#3a414a" stroke-width=".05" fill="#3a414a"/><path d="M202.4 1089.97H196l.7-1.54.44-1.7.15-1.73-.17-1.74-.44-1.7-.7-1.53h6.4z" fill="#3a414a"/><path stroke="#3a414a" stroke-width=".05" fill="#3a414a"/><path d="M222 1323.82l-4.64-14.27h9.27z" fill="#3a414a"/><path d="M222 1339.92l-11.5-35.34h22.98z" stroke="#3a414a" stroke-width=".05" fill="#3a414a"/><use xlink:href="#s" transform="matrix(1,0,0,1,209.76618381059592,1189.3906427137836) translate(0.005000000000000782 17.22222222222222)"/><path d="M60 150v134.55" stroke="#3a414a" stroke-width="10" fill="none"/><path d="M64.97 150.13h-9.95V145h9.95z" stroke="#3a414a" stroke-width=".05" fill="#3a414a"/><path d="M60 303.82l-4.63-14.27h9.27z" stroke="#3a414a" stroke-width="10" fill="#3a414a"/><path d="M116.55 1351a6 6 0 0 1 6-6h148a6 6 0 0 1 6 6v108a6 6 0 0 1-6 6h-148a6 6 0 0 1-6-6z" stroke="#3a414a" stroke-width="10" fill-opacity="0"/><use xlink:href="#t" transform="matrix(1,0,0,1,116.54924024649114,1344.9999500000013) translate(44.827473958333336 55.27777777777778)"/><use xlink:href="#u" transform="matrix(1,0,0,1,116.54924024649114,1344.9999500000013) translate(26.679687500000007 82.16579861111111)"/><path d="M116.55 1551a6 6 0 0 1 6-6h148a6 6 0 0 1 6 6v108a6 6 0 0 1-6 6h-148a6 6 0 0 1-6-6z" stroke="#3a414a" stroke-width="10" fill-opacity="0"/><use xlink:href="#v" transform="matrix(1,0,0,1,116.54924024649114,1544.9999500000013) translate(25.57291666666667 55.27777777777778)"/><use xlink:href="#w" transform="matrix(1,0,0,1,116.54924024649114,1544.9999500000013) translate(88.37673611111111 55.27777777777778)"/><use xlink:href="#x" transform="matrix(1,0,0,1,116.54924024649114,1544.9999500000013) translate(20.028211805555557 82.16579861111111)"/><use xlink:href="#y" transform="matrix(1,0,0,1,116.54924024649114,1544.9999500000013) translate(81.24782986111111 82.16579861111111)"/><path d="M196.55 1475v29.55" stroke="#3a414a" stroke-width="10" fill="none"/><path d="M201.52 1475.13h-9.95V1470h9.95z" stroke="#3a414a" stroke-width=".05" fill="#3a414a"/><path d="M196.55 1523.82l-4.64-14.27h9.28z" stroke="#3a414a" stroke-width="10" fill="#3a414a"/><path d="M173.05 799.98H86.2l-.36.02-.15.04-.16.06-.13.08-.1.1-.12.13-.08.14-.06.15-.04.14-.03.36v145.58h-9.94V800.8l.1-1.52.42-1.68.66-1.6.9-1.46 1.13-1.3 1.3-1.13 1.48-.9 1.6-.65 1.68-.4 1.53-.13h87.25zm299.73 0H197.5V790h275.28z" stroke="#3a414a" stroke-width=".05" fill="#3a414a"/><path d="M478.38 791.56l-.45 1.7-.15 1.74.15 1.75.45 1.7.72 1.52h-6.45v-9.95h6.45z" fill="#3a414a"/><path stroke="#3a414a" stroke-width=".05" fill="#3a414a"/><path d="M80 966.05l-4.64-14.26h9.28z" fill="#3a414a"/><path d="M80 982.15L68.52 946.8h22.96z" stroke="#3a414a" stroke-width=".05" fill="#3a414a"/><use xlink:href="#s" transform="matrix(1,0,0,1,173.04690373091887,784.2447916666667) translate(0.005000000000000782 17.22222222222222)"/><path d="M673.75 1020h50.8" stroke="#3a414a" stroke-width="10" fill="none"/><path d="M673.88 1024.97h-5.13v-9.95h5.13z" stroke="#3a414a" stroke-width=".05" fill="#3a414a"/><path d="M743.82 1020l-14.27 4.63v-9.27z" stroke="#3a414a" stroke-width="10" fill="#3a414a"/><path d="M885.72-289.86l1.68.4 1.6.67 1.46.9 1.3 1.13 1.13 1.3.9 1.48.65 1.6.4 1.68.13 1.53v18.75H885v-18.35l-.02-.36-.04-.15-.06-.16-.08-.13-.1-.1-.13-.12-.14-.08-.15-.06-.14-.04-.36-.02H-198.8l-.36.02-.15.04-.16.06-.13.08-.1.1-.12.13-.08.14-.06.15-.04.14-.03.36v1677.6l.03.36.04.15.06.16.08.13.1.1.13.12.14.08.15.06.14.04.36.03h28.8v9.94h-29.2l-1.52-.12-1.68-.4-1.6-.66-1.46-.9-1.3-1.13-1.13-1.3-.9-1.48-.65-1.6-.4-1.68-.13-1.53V-279.2l.13-1.52.4-1.68.66-1.6.9-1.46 1.13-1.3 1.3-1.13 1.48-.9 1.6-.65 1.68-.4 1.53-.13H884.2z" stroke="#3a414a" stroke-width=".05" fill="#3a414a"/><path d="M-165 1409.97h-5.13v-9.94h5.13z" fill="#3a414a"/><path stroke="#3a414a" stroke-width=".05" fill="#3a414a"/><path d="M890-241.18l-4.63-14.27h9.26z" fill="#3a414a"/><path d="M890-225.08l-11.48-35.34h22.96z" stroke="#3a414a" stroke-width=".05" fill="#3a414a"/><path d="M-24.9-160c0 22.08-21.3 40-47.55 40-26.25 0-47.55-17.92-47.55-40s21.3-40 47.55-40c26.25 0 47.55 17.92 47.55 40z" stroke="#000" stroke-width="10"/><path d="M-20 26a6 6 0 0 1 6-6h148a6 6 0 0 1 6 6v108a6 6 0 0 1-6 6H-14a6 6 0 0 1-6-6z" stroke="#3a414a" stroke-width="10" fill-opacity="0"/><use xlink:href="#z" transform="matrix(1,0,0,1,-20,20) translate(49.954427083333336 55.27777777777778)"/><use xlink:href="#A" transform="matrix(1,0,0,1,-20,20) translate(19.317491319444443 82.16579861111111)"/><path d="M500 26a6 6 0 0 1 6-6h148a6 6 0 0 1 6 6v108a6 6 0 0 1-6 6H506a6 6 0 0 1-6-6z" stroke="#3a414a" stroke-width="10" fill-opacity="0"/><use xlink:href="#B" transform="matrix(1,0,0,1,500,20) translate(48.07725694444444 40.27777777777778)"/><use xlink:href="#C" transform="matrix(1,0,0,1,500,20) translate(30.10308159722223 67.16579861111111)"/><use xlink:href="#D" transform="matrix(1,0,0,1,500,20) translate(46.90538194444444 94.05381944444446)"/><path d="M503.75 346a6 6 0 0 1 6-6h148a6 6 0 0 1 6 6v108a6 6 0 0 1-6 6h-148a6 6 0 0 1-6-6z" stroke="#3a414a" stroke-width="10" fill-opacity="0"/><use xlink:href="#E" transform="matrix(1,0,0,1,503.7499999999999,340) translate(52.677951388888886 40.27777777777778)"/><use xlink:href="#F" transform="matrix(1,0,0,1,503.7499999999999,340) translate(10.197482638888886 67.16579861111111)"/><use xlink:href="#G" transform="matrix(1,0,0,1,503.7499999999999,340) translate(95.90711805555556 67.16579861111111)"/><use xlink:href="#H" transform="matrix(1,0,0,1,503.7499999999999,340) translate(30.493706597222214 94.05381944444446)"/><path d="M522.5 1551a6 6 0 0 1 6-6h148a6 6 0 0 1 6 6v108a6 6 0 0 1-6 6h-148a6 6 0 0 1-6-6z" stroke="#3a414a" stroke-width="10" fill-opacity="0"/><use xlink:href="#I" transform="matrix(1,0,0,1,522.5,1544.9999500000013) translate(52.18424479166667 55.27777777777778)"/><use xlink:href="#J" transform="matrix(1,0,0,1,522.5,1544.9999500000013) translate(3.3127170138888857 82.16579861111111)"/><use xlink:href="#K" transform="matrix(1,0,0,1,522.5,1544.9999500000013) translate(111.37478298611111 82.16579861111111)"/><path d="M522.5 1751a6 6 0 0 1 6-6h148a6 6 0 0 1 6 6v108a6 6 0 0 1-6 6h-148a6 6 0 0 1-6-6z" stroke="#3a414a" stroke-width="10" fill-opacity="0"/><use xlink:href="#L" transform="matrix(1,0,0,1,522.5,1744.9999500000015) translate(49.308810763888886 55.27777777777778)"/><use xlink:href="#u" transform="matrix(1,0,0,1,522.5,1744.9999500000015) translate(26.679687500000007 82.16579861111111)"/><path d="M286.55 1605h195.5" stroke="#3a414a" stroke-width="10" fill="none"/><path d="M286.68 1609.97h-5.13v-9.94h5.13z" stroke="#3a414a" stroke-width=".05" fill="#3a414a"/><path d="M501.32 1605l-14.27 4.63v-9.27z" stroke="#3a414a" stroke-width="10" fill="#3a414a"/><path d="M602.5 1675v29.55" stroke="#3a414a" stroke-width="10" fill="none"/><path d="M607.48 1675.13h-9.96V1670h9.96z" stroke="#3a414a" stroke-width=".05" fill="#3a414a"/><path d="M602.5 1723.82l-4.63-14.27h9.26z" stroke="#3a414a" stroke-width="10" fill="#3a414a"/><path d="M503.75 526a6 6 0 0 1 6-6h148a6 6 0 0 1 6 6v108a6 6 0 0 1-6 6h-148a6 6 0 0 1-6-6z" stroke="#3a414a" stroke-width="10" fill-opacity="0"/><use xlink:href="#M" transform="matrix(1,0,0,1,503.7499999999999,520) translate(2.2222222222222285 40.27777777777778)"/><use xlink:href="#N" transform="matrix(1,0,0,1,503.7499999999999,520) translate(79.04513888888889 40.27777777777778)"/><use xlink:href="#O" transform="matrix(1,0,0,1,503.7499999999999,520) translate(135.30598958333331 40.27777777777778)"/><use xlink:href="#P" transform="matrix(1,0,0,1,503.7499999999999,520) translate(43.84006076388889 67.16579861111111)"/><use xlink:href="#q" transform="matrix(1,0,0,1,503.7499999999999,520) translate(17.60308159722222 94.05381944444446)"/><path d="M583.75 470v9.55" stroke="#3a414a" stroke-width="10" fill="none"/><path d="M588.73 470.13h-9.96V465h9.96z" stroke="#3a414a" stroke-width=".05" fill="#3a414a"/><path d="M583.75 498.82l-4.63-14.27h9.26z" stroke="#3a414a" stroke-width="10" fill="#3a414a"/><path d="M576.65 713.86a7.15 7.15 0 0 1 9.2 0l92.05 77.28a5.04 5.04 0 0 1 0 7.72l-92.05 77.28a7.15 7.15 0 0 1-9.2 0l-92.05-77.28a5.04 5.04 0 0 1 0-7.72z" stroke="#3a414a" stroke-width="10" fill-opacity="0"/><use xlink:href="#h" transform="matrix(1,0,0,1,480,710.0000000000001) translate(50.136944444444445 64.02777777777777)"/><use xlink:href="#Q" transform="matrix(1,0,0,1,480,710.0000000000001) translate(21.751527777777778 90.91579861111111)"/><use xlink:href="#R" transform="matrix(1,0,0,1,480,710.0000000000001) translate(133.76324652777777 90.91579861111111)"/><use xlink:href="#S" transform="matrix(1,0,0,1,480,710.0000000000001) translate(45.18360243055556 117.80381944444446)"/><path d="M583.75 650v22.16" stroke="#3a414a" stroke-width="10" fill="none"/><path d="M588.73 650.13h-9.96V645h9.96z" stroke="#3a414a" stroke-width=".05" fill="#3a414a"/><path d="M583.82 691.3l-4.7-14.24 9.28-.03z" stroke="#3a414a" stroke-width="10" fill="#3a414a"/><path d="M503.75 966a6 6 0 0 1 6-6h148a6 6 0 0 1 6 6v108a6 6 0 0 1-6 6h-148a6 6 0 0 1-6-6z" stroke="#3a414a" stroke-width="10" fill-opacity="0"/><use xlink:href="#T" transform="matrix(1,0,0,1,503.7499999999999,960) translate(38.06206597222222 55.27777777777778)"/><use xlink:href="#U" transform="matrix(1,0,0,1,503.7499999999999,960) translate(7.360026041666657 82.16579861111111)"/><use xlink:href="#V" transform="matrix(1,0,0,1,503.7499999999999,960) translate(92.548828125 82.16579861111111)"/><path d="M586.23 908.16h-9.96v-20.33h9.96z" stroke="#3a414a" stroke-width=".05" fill="#3a414a"/><path d="M576.3 881.78l1.6.58 1.66.35 1.7.13 1.68-.12 1.66-.34 1.6-.58.02 6.18h-9.95v-6.2z" fill="#3a414a"/><path stroke="#3a414a" stroke-width=".05" fill="#3a414a"/><path d="M581.1 938.82l-3-9.15h5.96z" fill="#3a414a"/><path d="M581.1 954.92l-8.22-25.25h16.4z" stroke="#3a414a" stroke-width=".05" fill="#3a414a"/><use xlink:href="#r" transform="matrix(1,0,0,1,565.3694216085878,908.1585984886357) translate(0.005000000000000782 17.22222222222222)"/><path d="M100-214a6 6 0 0 1 6-6h148a6 6 0 0 1 6 6v108a6 6 0 0 1-6 6H106a6 6 0 0 1-6-6z" stroke="#3a414a" stroke-width="10" fill-opacity="0"/><g><use xlink:href="#g" transform="matrix(1,0,0,1,100,-220) translate(51.97265625 55.27777777777778)"/><use xlink:href="#f" transform="matrix(1,0,0,1,100,-220) translate(17.60308159722222 82.16579861111111)"/></g><path d="M-72.45-114.5V-81a6 6 0 0 0 6 6h98a6 6 0 0 0 6-6v-178a6 6 0 0 1 6-6H164a6 6 0 0 1 6 6v17.62" stroke="#f2f3f5" fill="none"/><path d="M-72.46-115l.48-.02v.54h-.95v-.54z" stroke="#f2f3f5" stroke-width=".05" fill="#f2f3f5"/><path d="M170-226.62l-4.63-14.26h9.26z" stroke="#f2f3f5" fill="#f2f3f5"/><path d="M-72.45-114.5V-81a6 6 0 0 0 6 6h98a6 6 0 0 0 6-6v-178a6 6 0 0 1 6-6H164a6 6 0 0 1 6 6v17.62" stroke="#f2f3f5" fill="none"/><path d="M-72.46-115l.48-.02v.54h-.95v-.54z" stroke="#f2f3f5" stroke-width=".05" fill="#f2f3f5"/><path d="M170-226.62l-4.63-14.26h9.26z" stroke="#f2f3f5" fill="#f2f3f5"/><path d="M490 80H180.45" stroke="#000" stroke-width="10" fill="none"/><path d="M495 84.97h-5.13v-9.94H495z" stroke="#000" stroke-width=".05"/><path d="M161.18 80l14.27-4.64v9.28z" stroke="#000" stroke-width="10"/><path d="M705.6 74.97h-5.15v-9.94h5.16zm67.22 0h-35.6v-9.94h35.6z" stroke="#000" stroke-width=".05"/><path d="M778.44 66.56l-.46 1.7-.16 1.74.16 1.75.46 1.7.73 1.52h-6.47v-9.94h6.47z"/><path stroke="#000" stroke-width=".05"/><path d="M695.45 74.64L681.18 70l14.27-4.64z"/><path d="M700.42 81.48L665.08 70l35.34-11.48z" stroke="#000" stroke-width=".05"/><g><use xlink:href="#r" transform="matrix(1,0,0,1,705.6131916716778,59.24479166666667) translate(0.005000000000000782 17.22222222222222)"/></g><path d="M724.65 253.9h-134.7l-.36.04-.16.03-.15.06-.14.1-.12.1-.1.1-.1.15-.05.14-.05.16-.02.35v44.42h-9.96v-44.8l.13-1.53.4-1.68.66-1.6.9-1.47 1.12-1.3 1.3-1.13 1.48-.9 1.6-.66 1.67-.4 1.52-.12h135.1zm170.33-10.77l-.13 1.52-.4 1.68-.66 1.6-.9 1.47-1.13 1.3-1.3 1.13-1.48.9-1.6.66-1.68.4-1.52.1H749.1v-9.94h134.7l.36-.03.15-.03.16-.06.13-.1.1-.1.12-.1.08-.15.06-.15.04-.16.02-.36v-74.87H895z" stroke="#000" stroke-width=".05"/><path d="M885.06 161.84l1.6.57 1.65.35 1.7.12 1.7-.12 1.64-.34 1.6-.56.03 6.16h-9.95v-6.18z"/><path stroke="#000" stroke-width=".05"/><path d="M583.75 318.82l-4.63-14.27h9.26z"/><path d="M583.75 334.92l-11.48-35.34h22.96z" stroke="#000" stroke-width=".05"/><g><use xlink:href="#s" transform="matrix(1,0,0,1,724.6484375,238.1798039543656) translate(0.005000000000000782 17.22222222222222)"/></g><path d="M-14.9-160h74.45" stroke="#000" stroke-width="10" fill="none"/><path d="M-14.77-155.03h-5.48l.14-.87.2-4.1-.2-3.86-.16-1.1h5.5z" stroke="#000" stroke-width=".05"/><path d="M78.82-160l-14.27 4.63v-9.26z" stroke="#000" stroke-width="10"/><path d="M176.94-269.87l1.46.35 1.38.57 1.28.78 1.13.98.97 1.14.78 1.28.57 1.38.35 1.46.1 1.1-9.2.73v.12h-.07v.04h-.07l-.02.03-.05-.03-.03.04-.05-.02-.03.04-.05-.05-.05.04-.04-.04-.04.03-.03-.07-.05.02-.02-.06h-.05v-.02H66.2l-.36.02-.15.04-.16.06-.13.08-.1.1-.12.13-.08.14-.06.15-.04.14-.03.36v28l-.1 1.52-.42 1.68-.66 1.6-.9 1.46-1.13 1.3-1.3 1.13-1.48.9-1.6.65-1.68.4-1.52.13h-288l-.36.02-.15.04-.16.06-.13.08-.1.1-.12.13-.08.14-.06.15-.04.14-.03.36v2122.6l.03.36.04.15.06.16.08.13.1.1.13.12.14.08.15.06.14.04.35.03h830.1l.36-.03.15-.04.16-.06.13-.08.1-.1.12-.13.08-.14.06-.15.04-.14.02-.36V1875h9.96v29.2l-.13 1.52-.4 1.68-.66 1.6-.9 1.46-1.13 1.3-1.3 1.13-1.48.9-1.6.65-1.68.4-1.52.13h-830.9l-1.52-.13-1.68-.4-1.6-.66-1.46-.9-1.3-1.13-1.13-1.3-.9-1.48-.65-1.6-.4-1.68-.13-1.53V-219.2l.13-1.52.4-1.68.66-1.6.9-1.46 1.13-1.3 1.3-1.13 1.48-.9 1.6-.65 1.68-.4 1.53-.13h288l.36-.02.15-.04.16-.06.13-.08.1-.1.12-.13.08-.14.06-.15.04-.14.02-.35v-28l.13-1.52.4-1.68.66-1.6.9-1.46 1.13-1.3 1.3-1.13 1.48-.9 1.6-.65 1.68-.4 1.53-.13h109.84z" stroke="#000" stroke-width=".05"/><path d="M607.48 1875.13h-9.96V1870h9.96z"/><path stroke="#000" stroke-width=".05"/><path d="M180-241.18l-4.63-14.27h9.26z"/><path d="M180-225.08l-11.48-35.34h22.96z" stroke="#000" stroke-width=".05"/><path d="M820 1020c0 16.57-13.43 30-30 30s-30-13.43-30-30 13.43-30 30-30 30 13.43 30 30zM90 350c0 16.57-13.43 30-30 30s-30-13.43-30-30 13.43-30 30-30 30 13.43 30 30z" stroke="#dfe3e8" stroke-width="6"/><defs><path d="M763 24c-353 0-583-224-583-531v-983h190v968c0 214 149 370 393 370 243 0 391-156 391-370v-968h190v983c0 307-230 531-581 531" id="W"/><path d="M538 24C308 24 148-78 108-271l171-41c32 123 123 178 257 178 156 0 256-77 256-169 0-77-54-128-164-154l-186-44c-203-48-300-148-300-305 0-192 176-326 414-326 230 0 351 112 402 269l-163 42c-31-80-94-158-238-158-133 0-233 69-233 162 0 83 57 129 188 160l169 40c203 48 298 149 298 302 0 196-179 339-441 339" id="X"/><path d="M628 24c-324 0-524-230-524-574 0-343 198-582 503-582 237 0 487 146 487 559v75H286c9 234 145 362 343 362 132 0 231-58 273-172l174 48C1024-91 857 24 628 24zM287-650h624c-17-190-120-322-304-322-192 0-309 151-320 322" id="Y"/><path d="M158 0v-1118h174v172h12c41-113 157-188 290-188 26 0 70 2 91 3v181c-11-2-60-10-108-10-161 0-279 109-279 260V0H158" id="Z"/><g id="a"><use transform="matrix(0.010850694444444444,0,0,0.010850694444444444,0,0)" xlink:href="#W"/><use transform="matrix(0.010850694444444444,0,0,0.010850694444444444,16.536458333333332,0)" xlink:href="#X"/><use transform="matrix(0.010850694444444444,0,0,0.010850694444444444,28.266059027777775,0)" xlink:href="#Y"/><use transform="matrix(0.010850694444444444,0,0,0.010850694444444444,41.22178819444444,0)" xlink:href="#Z"/></g><path d="M52 0l541-1490h220L1361 0h-200l-149-416H398L254 0H52zm404-582h497c-103-290-145-390-251-756-108 377-145 460-246 756" id="aa"/><path d="M537 14c-226 0-379-139-379-422v-710h180v695c0 172 97 275 253 275 160 0 281-109 281-300v-670h181V0H879v-209C806-46 684 14 537 14" id="ab"/><path d="M598-1118v154H368v674c0 100 37 144 132 144 23 0 62-6 92-12L629-6c-37 13-88 20-134 20-193 0-307-107-307-290v-688H20v-154h168v-266h180v266h230" id="ac"/><path d="M338-670V0H158v-1490h180v566c73-149 190-208 336-208 226 0 379 139 379 422V0H872v-695c0-172-96-275-252-275-161 0-282 109-282 300" id="ad"/><path d="M338-670V0H158v-1118h173l1 207c72-158 192-221 342-221 226 0 378 139 378 422V0H872v-695c0-172-96-275-252-275-161 0-282 109-282 300" id="ae"/><path d="M158 0v-1118h180V0H158zm91-1301c-68 0-125-53-125-119s57-119 125-119c69 0 126 53 126 119s-57 119-126 119" id="af"/><path d="M613 24c-304 0-509-231-509-576 0-350 205-580 509-580 216 0 392 114 453 309l-173 49c-33-115-133-197-280-197-223 0-326 196-326 419 0 220 103 415 326 415 150 0 252-85 285-206l172 49C1010-95 832 24 613 24" id="ag"/><path d="M471 26C259 26 90-98 90-318c0-256 228-303 435-329 202-27 287-16 287-108 0-139-79-219-234-219-161 0-248 86-283 164l-173-57c86-203 278-265 451-265 150 0 419 46 419 395V0H815v-152h-12C765-73 660 26 471 26zm31-159c199 0 310-134 310-271v-155c-30 35-226 55-295 64-131 17-246 59-246 186 0 116 97 176 231 176" id="ah"/><path d="M613 24c-304 0-509-231-509-576 0-350 205-580 509-580 305 0 511 230 511 580 0 345-206 576-511 576zm0-161c226 0 329-195 329-415 0-222-103-419-329-419-223 0-326 196-326 419 0 220 103 415 326 415" id="ai"/><g id="b"><use transform="matrix(0.010850694444444444,0,0,0.010850694444444444,0,0)" xlink:href="#aa"/><use transform="matrix(0.010850694444444444,0,0,0.010850694444444444,15.33203125,0)" xlink:href="#ab"/><use transform="matrix(0.010850694444444444,0,0,0.010850694444444444,28.47222222222222,0)" xlink:href="#ac"/><use transform="matrix(0.010850694444444444,0,0,0.010850694444444444,35.7421875,0)" xlink:href="#ad"/><use transform="matrix(0.010850694444444444,0,0,0.010850694444444444,48.88237847222222,0)" xlink:href="#Y"/><use transform="matrix(0.010850694444444444,0,0,0.010850694444444444,61.838107638888886,0)" xlink:href="#ae"/><use transform="matrix(0.010850694444444444,0,0,0.010850694444444444,74.96744791666666,0)" xlink:href="#ac"/><use transform="matrix(0.010850694444444444,0,0,0.010850694444444444,82.23741319444443,0)" xlink:href="#af"/><use transform="matrix(0.010850694444444444,0,0,0.010850694444444444,87.61935763888887,0)" xlink:href="#ag"/><use transform="matrix(0.010850694444444444,0,0,0.010850694444444444,100.53168402777776,0)" xlink:href="#ah"/><use transform="matrix(0.010850694444444444,0,0,0.010850694444444444,113.00998263888887,0)" xlink:href="#ac"/><use transform="matrix(0.010850694444444444,0,0,0.010850694444444444,120.27994791666664,0)" xlink:href="#af"/><use transform="matrix(0.010850694444444444,0,0,0.010850694444444444,125.66189236111109,0)" xlink:href="#ai"/><use transform="matrix(0.010850694444444444,0,0,0.010850694444444444,138.98654513888886,0)" xlink:href="#ae"/></g><g id="c"><use transform="matrix(0.010850694444444444,0,0,0.010850694444444444,0,0)" xlink:href="#W"/><use transform="matrix(0.010850694444444444,0,0,0.010850694444444444,16.536458333333332,0)" xlink:href="#X"/><use transform="matrix(0.010850694444444444,0,0,0.010850694444444444,28.266059027777775,0)" xlink:href="#Y"/><use transform="matrix(0.010850694444444444,0,0,0.010850694444444444,41.22178819444444,0)" xlink:href="#Z"/></g><path d="M657 26c-323 0-524-166-541-416h195c15 169 171 246 346 246 202 0 356-106 356-265 5-203-294-238-475-293-239-73-380-191-380-389 0-252 224-419 512-419 294 0 499 171 508 396H992c-17-145-151-228-328-228-193 0-321 102-321 242 0 156 175 211 284 241l149 41c160 44 422 134 422 412 0 244-197 432-541 432" id="aj"/><path d="M140 405l46-156c120 36 205 19 263-150l32-93L54-1118h197c107 313 237 620 324 950 87-331 219-637 326-950h196L606 167c-68 178-176 259-334 259-64 0-113-12-132-21" id="ak"/><path d="M158 0v-1118h175l1 205c55-151 181-225 313-225 147 0 245 90 285 228 53-141 190-228 352-228 194 0 352 125 352 384V0h-181v-749c0-161-105-225-225-225-151 0-243 103-243 244V0H807v-767c0-124-93-207-219-207-131 0-250 92-250 270V0H158" id="al"/><g id="d"><use transform="matrix(0.010850694444444444,0,0,0.010850694444444444,0,0)" xlink:href="#aj"/><use transform="matrix(0.010850694444444444,0,0,0.010850694444444444,14.2578125,0)" xlink:href="#ak"/><use transform="matrix(0.010850694444444444,0,0,0.010850694444444444,26.74696180555556,0)" xlink:href="#X"/><use transform="matrix(0.010850694444444444,0,0,0.010850694444444444,38.4765625,0)" xlink:href="#ac"/><use transform="matrix(0.010850694444444444,0,0,0.010850694444444444,45.5295138888889,0)" xlink:href="#Y"/><use transform="matrix(0.010850694444444444,0,0,0.010850694444444444,58.48524305555555,0)" xlink:href="#al"/></g><path d="M571 0L49-1490h339c138 427 271 775 384 1244 111-471 237-815 371-1244h337L970 0H571" id="am"/><path d="M633 22C291 22 81-200 81-553c0-345 210-579 537-579 292 0 525 185 525 567v84H378c7 183 109 277 260 277 105 0 184-46 216-132l272 51C1071-99 893 22 633 22zM380-669h474c-15-146-94-237-233-237-143 0-229 99-241 237" id="an"/><path d="M128 0v-1118h290v195h12c54-169 184-238 367-200v268c-27-8-86-15-130-15-138 0-239 95-239 234V0H128" id="ao"/><path d="M128 0v-1118h300V0H128zm150-1264c-91 0-165-68-165-154 0-85 74-154 165-154 90 0 165 69 165 154 0 86-75 154-165 154" id="ap"/><path d="M750-1118v229H516V0H217v-889H20v-229h197v-86c0-238 156-356 363-356 94 0 178 20 215 31l-54 226c-25-7-61-15-100-15-123-3-131 84-125 200h234" id="aq"/><path d="M120 396l69-226c123 42 245 23 254-107l8-60L31-1118h319c87 288 199 559 259 872 72-308 185-583 277-872h315L726 132c-68 181-186 294-410 294-79 0-153-13-196-30" id="ar"/><g id="e"><use transform="matrix(0.010850694444444444,0,0,0.010850694444444444,0,0)" xlink:href="#am"/><use transform="matrix(0.010850694444444444,0,0,0.010850694444444444,15.234374999999996,0)" xlink:href="#an"/><use transform="matrix(0.010850694444444444,0,0,0.010850694444444444,28.47222222222222,0)" xlink:href="#ao"/><use transform="matrix(0.010850694444444444,0,0,0.010850694444444444,37.68446180555556,0)" xlink:href="#ap"/><use transform="matrix(0.010850694444444444,0,0,0.010850694444444444,43.70659722222222,0)" xlink:href="#aq"/><use transform="matrix(0.010850694444444444,0,0,0.010850694444444444,52.54991319444444,0)" xlink:href="#ar"/></g><path d="M786 20C389 20 94-260 94-744c0-487 299-766 692-766 339 0 597 194 641 529h-309c-28-162-156-258-326-258-233 0-388 179-388 495 0 323 157 493 387 493 170 0 298-97 328-259h309c-34 277-266 530-642 530" id="as"/><path d="M537 19C279 19 81-185 81-557c0-382 206-575 454-575 190 0 278 113 318 202h10v-560h300V0H868v-179h-15C812-89 719 19 537 19zm92-241c153 0 240-134 240-336 0-203-86-334-240-334-158 0-240 138-240 334 0 197 84 336 240 336" id="at"/><path d="M428-647V0H128v-1118h283l4 231c63-156 176-245 348-245 232 0 384 159 384 421V0H847v-659c0-139-76-222-202-222-128 0-217 86-217 234" id="au"/><path d="M683-1118v229H474v562c0 71 29 104 102 104 23 0 73-7 95-13l43 225C647 9 580 16 520 16 296 16 174-96 174-301v-588H20v-229h154v-266h300v266h209" id="av"/><path d="M440 22C227 22 68-92 68-313c0-250 202-322 422-343 195-21 271-24 271-105 0-95-63-149-175-149-116 0-187 57-211 129l-275-46c57-194 237-305 487-305 240 0 474 108 474 379V0H777v-155h-10C713-51 605 22 440 22zm85-211c140 0 238-93 238-211v-121c-37 26-156 42-222 51-111 16-185 59-185 149 0 87 70 132 169 132" id="aw"/><path d="M428-1490V0H128v-1490h300" id="ax"/><path d="M572 22C302 22 117-98 78-306l279-48c29 105 101 156 224 156 114 0 185-48 185-115 0-118-228-130-337-155-215-49-322-150-322-317 0-215 187-347 470-347 265 0 424 116 466 298l-266 47c-24-76-87-130-196-130-98 0-174 46-174 113 0 56 38 95 144 117l201 40c216 44 320 143 320 302 0 220-207 367-500 367" id="ay"/><g id="f"><use transform="matrix(0.010850694444444444,0,0,0.010850694444444444,0,0)" xlink:href="#as"/><use transform="matrix(0.010850694444444444,0,0,0.010850694444444444,16.438802083333332,0)" xlink:href="#ao"/><use transform="matrix(0.010850694444444444,0,0,0.010850694444444444,24.94574652777778,0)" xlink:href="#an"/><use transform="matrix(0.010850694444444444,0,0,0.010850694444444444,38.18359375,0)" xlink:href="#at"/><use transform="matrix(0.010850694444444444,0,0,0.010850694444444444,52.19184027777778,0)" xlink:href="#an"/><use transform="matrix(0.010850694444444444,0,0,0.010850694444444444,65.4296875,0)" xlink:href="#au"/><use transform="matrix(0.010850694444444444,0,0,0.010850694444444444,79.26432291666667,0)" xlink:href="#av"/><use transform="matrix(0.010850694444444444,0,0,0.010850694444444444,87.40234375,0)" xlink:href="#ap"/><use transform="matrix(0.010850694444444444,0,0,0.010850694444444444,93.42447916666666,0)" xlink:href="#aw"/><use transform="matrix(0.010850694444444444,0,0,0.010850694444444444,106.32595486111111,0)" xlink:href="#ax"/><use transform="matrix(0.010850694444444444,0,0,0.010850694444444444,112.3480902777778,0)" xlink:href="#ay"/></g><path d="M440-1490V0H135v-1490h305" id="az"/><path d="M128 418v-1536h295v188h14c41-89 129-202 319-202 248 0 453 193 453 575 0 372-197 576-455 576-183 0-275-108-317-198h-9v597H128zm534-640c156 0 240-139 240-336 0-196-83-334-240-334-154 0-241 131-241 334 0 202 88 336 241 336" id="aA"/><path d="M513 14c-232 0-385-159-385-421v-711h300v659c0 139 76 222 202 222 127 0 217-86 217-234v-647h301V0H864l-4-232C797-74 683 14 513 14" id="aB"/><g id="g"><use transform="matrix(0.010850694444444444,0,0,0.010850694444444444,0,0)" xlink:href="#az"/><use transform="matrix(0.010850694444444444,0,0,0.010850694444444444,6.239149305555555,0)" xlink:href="#au"/><use transform="matrix(0.010850694444444444,0,0,0.010850694444444444,20.07378472222222,0)" xlink:href="#aA"/><use transform="matrix(0.010850694444444444,0,0,0.010850694444444444,34.08203125,0)" xlink:href="#aB"/><use transform="matrix(0.010850694444444444,0,0,0.010850694444444444,47.916666666666664,0)" xlink:href="#av"/></g><path d="M659 0H135v-1490h529c448 0 721 280 721 744 0 466-273 746-726 746zM440-263h204c287 0 437-148 437-483 0-333-150-481-435-481H440v964" id="aC"/><path d="M628 22C291 22 81-210 81-554c0-346 210-578 547-578 265 0 455 142 497 372l-279 52c-25-116-99-188-215-188-160 0-244 139-244 341 0 200 84 341 244 341 116 0 193-74 217-195l279 51C1085-123 896 22 628 22" id="aD"/><path d="M628 22C291 22 81-210 81-554c0-346 210-578 547-578 336 0 547 232 547 578 0 344-211 576-547 576zm0-236c160 0 242-146 242-341 0-197-82-341-242-341S387-753 387-555c0 195 81 341 241 341" id="aE"/><path d="M342-723c-98 0-173-75-173-172s75-172 173-172 173 75 173 172-75 172-173 172zm0 742c-98 0-173-75-173-172s75-172 173-172 173 75 173 172S440 19 342 19" id="aF"/><g id="h"><use transform="matrix(0.010850694444444444,0,0,0.010850694444444444,0,0)" xlink:href="#aC"/><use transform="matrix(0.010850694444444444,0,0,0.010850694444444444,16.048177083333332,0)" xlink:href="#an"/><use transform="matrix(0.010850694444444444,0,0,0.010850694444444444,29.286024305555554,0)" xlink:href="#aD"/><use transform="matrix(0.010850694444444444,0,0,0.010850694444444444,42.36111111111111,0)" xlink:href="#ap"/><use transform="matrix(0.010850694444444444,0,0,0.010850694444444444,48.38324652777778,0)" xlink:href="#ay"/><use transform="matrix(0.010850694444444444,0,0,0.010850694444444444,60.82899305555555,0)" xlink:href="#ap"/><use transform="matrix(0.010850694444444444,0,0,0.010850694444444444,66.85112847222221,0)" xlink:href="#aE"/><use transform="matrix(0.010850694444444444,0,0,0.010850694444444444,80.47960069444443,0)" xlink:href="#au"/><use transform="matrix(0.010850694444444444,0,0,0.010850694444444444,94.31423611111111,0)" xlink:href="#aF"/></g><g id="i"><use transform="matrix(0.010850694444444444,0,0,0.010850694444444444,0,0)" xlink:href="#az"/><use transform="matrix(0.010850694444444444,0,0,0.010850694444444444,6.239149305555555,0)" xlink:href="#aq"/></g><path d="M750 21c-371 0-615-218-615-544v-967h305v942c0 174 123 299 310 299s309-125 309-299v-942h306v967c0 326-247 544-615 544" id="aG"/><g id="j"><use transform="matrix(0.010850694444444444,0,0,0.010850694444444444,0,0)" xlink:href="#aG"/><use transform="matrix(0.010850694444444444,0,0,0.010850694444444444,16.26519097222222,0)" xlink:href="#ay"/><use transform="matrix(0.010850694444444444,0,0,0.010850694444444444,28.7109375,0)" xlink:href="#an"/><use transform="matrix(0.010850694444444444,0,0,0.010850694444444444,41.94878472222222,0)" xlink:href="#ao"/></g><path d="M428-647V0H128v-1490h294v586c65-146 175-228 341-228 232 0 385 159 385 421V0H847v-659c0-139-76-222-202-222-128 0-217 86-217 234" id="aH"/><g id="k"><use transform="matrix(0.010850694444444444,0,0,0.010850694444444444,0,0)" xlink:href="#as"/><use transform="matrix(0.010850694444444444,0,0,0.010850694444444444,16.438802083333332,0)" xlink:href="#aH"/><use transform="matrix(0.010850694444444444,0,0,0.010850694444444444,30.2734375,0)" xlink:href="#aE"/><use transform="matrix(0.010850694444444444,0,0,0.010850694444444444,43.90190972222222,0)" xlink:href="#aE"/><use transform="matrix(0.010850694444444444,0,0,0.010850694444444444,57.53038194444444,0)" xlink:href="#ay"/><use transform="matrix(0.010850694444444444,0,0,0.010850694444444444,69.97612847222221,0)" xlink:href="#an"/></g><path d="M135 0v-1490h581c339 0 533 192 533 485 0 204-94 351-264 424L1302 0H964L680-532H440V0H135zm305-779h220c186 0 274-77 274-226 0-150-88-233-275-233H440v459" id="aI"/><g id="l"><use transform="matrix(0.010850694444444444,0,0,0.010850694444444444,0,0)" xlink:href="#aI"/><use transform="matrix(0.010850694444444444,0,0,0.010850694444444444,14.322916666666666,0)" xlink:href="#an"/><use transform="matrix(0.010850694444444444,0,0,0.010850694444444444,27.56076388888889,0)" xlink:href="#av"/><use transform="matrix(0.010850694444444444,0,0,0.010850694444444444,35.69878472222222,0)" xlink:href="#ao"/><use transform="matrix(0.010850694444444444,0,0,0.010850694444444444,45.09548611111111,0)" xlink:href="#ar"/></g><g id="m"><use transform="matrix(0.010850694444444444,0,0,0.010850694444444444,0,0)" xlink:href="#aE"/><use transform="matrix(0.010850694444444444,0,0,0.010850694444444444,13.628472222222221,0)" xlink:href="#ao"/></g><path d="M135 0v-1490h980v253H440v416h609v249H440V0H135" id="aJ"/><path d="M625 442c-280 0-454-114-503-274l258-72c28 63 97 128 243 128 153 0 246-69 246-216v-206h-23C805-108 717-16 536-16 284-16 81-191 81-561c0-378 208-571 456-571 188 0 280 113 321 202h13v-188h295V-9c0 303-226 451-541 451zm5-686c153 0 240-119 240-319 0-198-86-329-240-329-158 0-241 137-241 329 0 195 85 319 241 319" id="aK"/><g id="n"><use transform="matrix(0.010850694444444444,0,0,0.010850694444444444,0,0)" xlink:href="#aJ"/><use transform="matrix(0.010850694444444444,0,0,0.010850694444444444,12.40234375,0)" xlink:href="#aE"/><use transform="matrix(0.010850694444444444,0,0,0.010850694444444444,26.03081597222222,0)" xlink:href="#ao"/><use transform="matrix(0.010850694444444444,0,0,0.010850694444444444,34.537760416666664,0)" xlink:href="#aK"/><use transform="matrix(0.010850694444444444,0,0,0.010850694444444444,48.57855902777778,0)" xlink:href="#aE"/><use transform="matrix(0.010850694444444444,0,0,0.010850694444444444,62.20703125,0)" xlink:href="#av"/></g><path d="M135 0v-1490h581c339 0 533 210 533 503 0 295-197 500-540 500H440V0H135zm305-733h220c186 0 274-104 274-254s-88-251-275-251H440v505" id="aL"/><path d="M361 0L31-1118h315c68 295 127 523 188 845 63-317 128-551 199-845h276c71 296 131 525 196 846 57-321 119-552 186-846h319L1378 0h-305c-73-261-148-486-204-771C813-484 740-261 666 0H361" id="aM"/><g id="o"><use transform="matrix(0.010850694444444444,0,0,0.010850694444444444,0,0)" xlink:href="#aL"/><use transform="matrix(0.010850694444444444,0,0,0.010850694444444444,14.116753472222221,0)" xlink:href="#aw"/><use transform="matrix(0.010850694444444444,0,0,0.010850694444444444,27.018229166666664,0)" xlink:href="#ay"/><use transform="matrix(0.010850694444444444,0,0,0.010850694444444444,39.46397569444444,0)" xlink:href="#ay"/><use transform="matrix(0.010850694444444444,0,0,0.010850694444444444,51.90972222222222,0)" xlink:href="#aM"/><use transform="matrix(0.010850694444444444,0,0,0.010850694444444444,70.49696180555556,0)" xlink:href="#aE"/><use transform="matrix(0.010850694444444444,0,0,0.010850694444444444,84.12543402777777,0)" xlink:href="#ao"/><use transform="matrix(0.010850694444444444,0,0,0.010850694444444444,92.63237847222221,0)" xlink:href="#at"/></g><g id="p"><use transform="matrix(0.010850694444444444,0,0,0.010850694444444444,0,0)" xlink:href="#am"/><use transform="matrix(0.010850694444444444,0,0,0.010850694444444444,15.277777777777775,0)" xlink:href="#aw"/><use transform="matrix(0.010850694444444444,0,0,0.010850694444444444,28.17925347222222,0)" xlink:href="#ax"/><use transform="matrix(0.010850694444444444,0,0,0.010850694444444444,34.201388888888886,0)" xlink:href="#ap"/><use transform="matrix(0.010850694444444444,0,0,0.010850694444444444,40.22352430555555,0)" xlink:href="#at"/><use transform="matrix(0.010850694444444444,0,0,0.010850694444444444,54.23177083333333,0)" xlink:href="#aw"/><use transform="matrix(0.010850694444444444,0,0,0.010850694444444444,67.13324652777777,0)" xlink:href="#av"/><use transform="matrix(0.010850694444444444,0,0,0.010850694444444444,75.05425347222221,0)" xlink:href="#an"/></g><g id="q"><use transform="matrix(0.010850694444444444,0,0,0.010850694444444444,0,0)" xlink:href="#as"/><use transform="matrix(0.010850694444444444,0,0,0.010850694444444444,16.438802083333332,0)" xlink:href="#ao"/><use transform="matrix(0.010850694444444444,0,0,0.010850694444444444,24.94574652777778,0)" xlink:href="#an"/><use transform="matrix(0.010850694444444444,0,0,0.010850694444444444,38.18359375,0)" xlink:href="#at"/><use transform="matrix(0.010850694444444444,0,0,0.010850694444444444,52.19184027777778,0)" xlink:href="#an"/><use transform="matrix(0.010850694444444444,0,0,0.010850694444444444,65.4296875,0)" xlink:href="#au"/><use transform="matrix(0.010850694444444444,0,0,0.010850694444444444,79.26432291666667,0)" xlink:href="#av"/><use transform="matrix(0.010850694444444444,0,0,0.010850694444444444,87.40234375,0)" xlink:href="#ap"/><use transform="matrix(0.010850694444444444,0,0,0.010850694444444444,93.42447916666666,0)" xlink:href="#aw"/><use transform="matrix(0.010850694444444444,0,0,0.010850694444444444,106.32595486111111,0)" xlink:href="#ax"/><use transform="matrix(0.010850694444444444,0,0,0.010850694444444444,112.3480902777778,0)" xlink:href="#ay"/></g><path fill="#333" d="M601 0v-560L49-1490h357l252 464c38 68 67 130 97 208 96-243 225-446 337-672h356L905-560V0H601" id="aN"/><path fill="#333" d="M633 22C291 22 81-200 81-553c0-345 210-579 537-579 292 0 525 185 525 567v84H378c7 183 109 277 260 277 105 0 184-46 216-132l272 51C1071-99 893 22 633 22zM380-669h474c-15-146-94-237-233-237-143 0-229 99-241 237" id="aO"/><path fill="#333" d="M572 22C302 22 117-98 78-306l279-48c29 105 101 156 224 156 114 0 185-48 185-115 0-118-228-130-337-155-215-49-322-150-322-317 0-215 187-347 470-347 265 0 424 116 466 298l-266 47c-24-76-87-130-196-130-98 0-174 46-174 113 0 56 38 95 144 117l201 40c216 44 320 143 320 302 0 220-207 367-500 367" id="aP"/><g id="r"><use transform="matrix(0.008680555555555556,0,0,0.008680555555555556,0,0)" xlink:href="#aN"/><use transform="matrix(0.008680555555555556,0,0,0.008680555555555556,11.050347222222223,0)" xlink:href="#aO"/><use transform="matrix(0.008680555555555556,0,0,0.008680555555555556,21.640625,0)" xlink:href="#aP"/></g><path fill="#333" d="M135 0v-1490h340l471 754c59 97 122 210 187 365-32-387-14-721-19-1119h312V0h-341C855-382 627-689 427-1113c32 420 16 695 20 1113H135" id="aQ"/><path fill="#333" d="M628 22C291 22 81-210 81-554c0-346 210-578 547-578 336 0 547 232 547 578 0 344-211 576-547 576zm0-236c160 0 242-146 242-341 0-197-82-341-242-341S387-753 387-555c0 195 81 341 241 341" id="aR"/><g id="s"><use transform="matrix(0.008680555555555556,0,0,0.008680555555555556,0,0)" xlink:href="#aQ"/><use transform="matrix(0.008680555555555556,0,0,0.008680555555555556,13.550347222222223,0)" xlink:href="#aR"/></g><g id="t"><use transform="matrix(0.010850694444444444,0,0,0.010850694444444444,0,0)" xlink:href="#aJ"/><use transform="matrix(0.010850694444444444,0,0,0.010850694444444444,12.40234375,0)" xlink:href="#aE"/><use transform="matrix(0.010850694444444444,0,0,0.010850694444444444,26.03081597222222,0)" xlink:href="#ao"/><use transform="matrix(0.010850694444444444,0,0,0.010850694444444444,34.537760416666664,0)" xlink:href="#aK"/><use transform="matrix(0.010850694444444444,0,0,0.010850694444444444,48.57855902777778,0)" xlink:href="#aE"/><use transform="matrix(0.010850694444444444,0,0,0.010850694444444444,62.20703125,0)" xlink:href="#av"/></g><g id="u"><use transform="matrix(0.010850694444444444,0,0,0.010850694444444444,0,0)" xlink:href="#aL"/><use transform="matrix(0.010850694444444444,0,0,0.010850694444444444,14.116753472222221,0)" xlink:href="#aw"/><use transform="matrix(0.010850694444444444,0,0,0.010850694444444444,27.018229166666664,0)" xlink:href="#ay"/><use transform="matrix(0.010850694444444444,0,0,0.010850694444444444,39.46397569444444,0)" xlink:href="#ay"/><use transform="matrix(0.010850694444444444,0,0,0.010850694444444444,51.90972222222222,0)" xlink:href="#aM"/><use transform="matrix(0.010850694444444444,0,0,0.010850694444444444,70.49696180555556,0)" xlink:href="#aE"/><use transform="matrix(0.010850694444444444,0,0,0.010850694444444444,84.12543402777777,0)" xlink:href="#ao"/><use transform="matrix(0.010850694444444444,0,0,0.010850694444444444,92.63237847222221,0)" xlink:href="#at"/></g><path d="M135 0v-1490h997v253H440v360h640v249H440v375h694V0H135" id="aS"/><g id="v"><use transform="matrix(0.010850694444444444,0,0,0.010850694444444444,0,0)" xlink:href="#aS"/><use transform="matrix(0.010850694444444444,0,0,0.010850694444444444,13.49826388888889,0)" xlink:href="#au"/><use transform="matrix(0.010850694444444444,0,0,0.010850694444444444,27.33289930555556,0)" xlink:href="#av"/><use transform="matrix(0.010850694444444444,0,0,0.010850694444444444,35.25390625,0)" xlink:href="#an"/><use transform="matrix(0.010850694444444444,0,0,0.010850694444444444,48.49175347222222,0)" xlink:href="#ao"/></g><path d="M135 0v-1490h305v1237h643V0H135" id="aT"/><g id="w"><use transform="matrix(0.010850694444444444,0,0,0.010850694444444444,0,0)" xlink:href="#aT"/><use transform="matrix(0.010850694444444444,0,0,0.010850694444444444,12.565104166666666,0)" xlink:href="#aw"/><use transform="matrix(0.010850694444444444,0,0,0.010850694444444444,25.46657986111111,0)" xlink:href="#ay"/><use transform="matrix(0.010850694444444444,0,0,0.010850694444444444,37.912326388888886,0)" xlink:href="#av"/></g><g id="x"><use transform="matrix(0.010850694444444444,0,0,0.010850694444444444,0,0)" xlink:href="#aG"/><use transform="matrix(0.010850694444444444,0,0,0.010850694444444444,16.26519097222222,0)" xlink:href="#ay"/><use transform="matrix(0.010850694444444444,0,0,0.010850694444444444,28.7109375,0)" xlink:href="#an"/><use transform="matrix(0.010850694444444444,0,0,0.010850694444444444,41.94878472222222,0)" xlink:href="#at"/></g><path d="M128 0v-1118h278l12 217c60-163 185-234 319-234 143 0 236 81 288 251 63-172 205-251 359-251 205 0 357 138 357 381V0h-301v-697c0-126-76-187-177-187-114 0-184 79-184 196V0H789v-705c0-109-72-179-174-179-106 0-187 74-187 208V0H128" id="aU"/><g id="y"><use transform="matrix(0.010850694444444444,0,0,0.010850694444444444,0,0)" xlink:href="#aS"/><use transform="matrix(0.010850694444444444,0,0,0.010850694444444444,13.49826388888889,0)" xlink:href="#aU"/><use transform="matrix(0.010850694444444444,0,0,0.010850694444444444,33.77821180555556,0)" xlink:href="#aw"/><use transform="matrix(0.010850694444444444,0,0,0.010850694444444444,46.6796875,0)" xlink:href="#ap"/><use transform="matrix(0.010850694444444444,0,0,0.010850694444444444,52.701822916666664,0)" xlink:href="#ax"/></g><g id="z"><use transform="matrix(0.010850694444444444,0,0,0.010850694444444444,0,0)" xlink:href="#aT"/><use transform="matrix(0.010850694444444444,0,0,0.010850694444444444,12.565104166666666,0)" xlink:href="#aE"/><use transform="matrix(0.010850694444444444,0,0,0.010850694444444444,26.19357638888889,0)" xlink:href="#aK"/><use transform="matrix(0.010850694444444444,0,0,0.010850694444444444,40.234375,0)" xlink:href="#ap"/><use transform="matrix(0.010850694444444444,0,0,0.010850694444444444,46.256510416666664,0)" xlink:href="#au"/></g><path d="M681 22C323 22 94-145 85-462h297c10 151 131 226 296 226 163 0 271-77 271-190 0-102-95-149-257-189l-164-41c-252-61-403-188-403-405 0-269 236-449 560-449 330 0 546 183 551 445H941c-11-119-106-188-259-188-156 0-244 72-244 172-3 156 226 185 373 221 250 61 445 186 445 436 0 271-213 446-575 446" id="aV"/><g id="A"><use transform="matrix(0.010850694444444444,0,0,0.010850694444444444,0,0)" xlink:href="#aV"/><use transform="matrix(0.010850694444444444,0,0,0.010850694444444444,14.55078125,0)" xlink:href="#aB"/><use transform="matrix(0.010850694444444444,0,0,0.010850694444444444,28.385416666666664,0)" xlink:href="#aD"/><use transform="matrix(0.010850694444444444,0,0,0.010850694444444444,41.46050347222222,0)" xlink:href="#aD"/><use transform="matrix(0.010850694444444444,0,0,0.010850694444444444,54.53559027777778,0)" xlink:href="#an"/><use transform="matrix(0.010850694444444444,0,0,0.010850694444444444,67.7734375,0)" xlink:href="#ay"/><use transform="matrix(0.010850694444444444,0,0,0.010850694444444444,80.21918402777777,0)" xlink:href="#ay"/><use transform="matrix(0.010850694444444444,0,0,0.010850694444444444,92.66493055555556,0)" xlink:href="#aq"/><use transform="matrix(0.010850694444444444,0,0,0.010850694444444444,101.50824652777777,0)" xlink:href="#aB"/><use transform="matrix(0.010850694444444444,0,0,0.010850694444444444,115.34288194444444,0)" xlink:href="#ax"/></g><path d="M233-870l-31-620h289l-30 620H233zm435 0l-30-620h289l-30 620H668" id="aW"/><path d="M601 0v-560L49-1490h357l252 464c38 68 67 130 97 208 96-243 225-446 337-672h356L905-560V0H601" id="aX"/><g id="B"><use transform="matrix(0.010850694444444444,0,0,0.010850694444444444,0,0)" xlink:href="#aW"/><use transform="matrix(0.010850694444444444,0,0,0.010850694444444444,12.261284722222221,0)" xlink:href="#aX"/><use transform="matrix(0.010850694444444444,0,0,0.010850694444444444,26.07421875,0)" xlink:href="#an"/><use transform="matrix(0.010850694444444444,0,0,0.010850694444444444,39.31206597222222,0)" xlink:href="#ay"/><use transform="matrix(0.010850694444444444,0,0,0.010850694444444444,51.584201388888886,0)" xlink:href="#aW"/></g><path d="M795 20C377 20 94-272 94-743c0-483 302-767 694-767 335 0 593 206 635 500h-310c-42-142-154-229-320-229-230 0-389 177-389 493s154 495 393 495c212 0 340-120 345-311H818v-232h620v186c0 391-269 628-643 628" id="aY"/><g id="C"><use transform="matrix(0.010850694444444444,0,0,0.010850694444444444,0,0)" xlink:href="#aY"/><use transform="matrix(0.010850694444444444,0,0,0.010850694444444444,16.67751736111111,0)" xlink:href="#an"/><use transform="matrix(0.010850694444444444,0,0,0.010850694444444444,29.915364583333332,0)" xlink:href="#au"/><use transform="matrix(0.010850694444444444,0,0,0.010850694444444444,43.75,0)" xlink:href="#an"/><use transform="matrix(0.010850694444444444,0,0,0.010850694444444444,56.98784722222222,0)" xlink:href="#ao"/><use transform="matrix(0.010850694444444444,0,0,0.010850694444444444,65.73350694444444,0)" xlink:href="#aw"/><use transform="matrix(0.010850694444444444,0,0,0.010850694444444444,78.63498263888889,0)" xlink:href="#av"/><use transform="matrix(0.010850694444444444,0,0,0.010850694444444444,86.55598958333333,0)" xlink:href="#an"/></g><path d="M75-1237v-253h1217v253H837V0H531v-1237H75" id="aZ"/><path d="M128 0v-1490h300v802h17l366-430h347L740-633 1179 0H826L514-456l-86 97V0H128" id="ba"/><g id="D"><use transform="matrix(0.010850694444444444,0,0,0.010850694444444444,0,0)" xlink:href="#aZ"/><use transform="matrix(0.010850694444444444,0,0,0.010850694444444444,13.096788194444445,0)" xlink:href="#aE"/><use transform="matrix(0.010850694444444444,0,0,0.010850694444444444,26.725260416666664,0)" xlink:href="#ba"/><use transform="matrix(0.010850694444444444,0,0,0.010850694444444444,39.11675347222222,0)" xlink:href="#an"/><use transform="matrix(0.010850694444444444,0,0,0.010850694444444444,52.35460069444444,0)" xlink:href="#au"/></g><path d="M135 0v-1490h340l471 754c59 97 122 210 187 365-32-387-14-721-19-1119h312V0h-341C855-382 627-689 427-1113c32 420 16 695 20 1113H135" id="bb"/><g id="E"><use transform="matrix(0.010850694444444444,0,0,0.010850694444444444,0,0)" xlink:href="#aW"/><use transform="matrix(0.010850694444444444,0,0,0.010850694444444444,12.261284722222221,0)" xlink:href="#bb"/><use transform="matrix(0.010850694444444444,0,0,0.010850694444444444,29.19921875,0)" xlink:href="#aE"/><use transform="matrix(0.010850694444444444,0,0,0.010850694444444444,42.3828125,0)" xlink:href="#aW"/></g><g id="F"><use transform="matrix(0.010850694444444444,0,0,0.010850694444444444,0,0)" xlink:href="#aC"/><use transform="matrix(0.010850694444444444,0,0,0.010850694444444444,16.048177083333332,0)" xlink:href="#ap"/><use transform="matrix(0.010850694444444444,0,0,0.010850694444444444,22.0703125,0)" xlink:href="#ay"/><use transform="matrix(0.010850694444444444,0,0,0.010850694444444444,34.51605902777778,0)" xlink:href="#aA"/><use transform="matrix(0.010850694444444444,0,0,0.010850694444444444,48.52430555555556,0)" xlink:href="#ax"/><use transform="matrix(0.010850694444444444,0,0,0.010850694444444444,54.54644097222222,0)" xlink:href="#aw"/><use transform="matrix(0.010850694444444444,0,0,0.010850694444444444,67.06814236111111,0)" xlink:href="#ar"/></g><g id="G"><use transform="matrix(0.010850694444444444,0,0,0.010850694444444444,0,0)" xlink:href="#aS"/><use transform="matrix(0.010850694444444444,0,0,0.010850694444444444,13.49826388888889,0)" xlink:href="#ao"/><use transform="matrix(0.010850694444444444,0,0,0.010850694444444444,22.71050347222222,0)" xlink:href="#ao"/><use transform="matrix(0.010850694444444444,0,0,0.010850694444444444,31.217447916666664,0)" xlink:href="#aE"/><use transform="matrix(0.010850694444444444,0,0,0.010850694444444444,44.845920138888886,0)" xlink:href="#ao"/></g><path d="M135 0v-1490h468l242 684c30 94 76 293 111 455 34-161 80-360 110-455l238-684h470V0h-307c0-447-3-765 11-1227-122 503-246 788-395 1227H826C676-435 552-717 427-1215c15 453 11 775 11 1215H135" id="bc"/><g id="H"><use transform="matrix(0.010850694444444444,0,0,0.010850694444444444,0,0)" xlink:href="#bc"/><use transform="matrix(0.010850694444444444,0,0,0.010850694444444444,20.703125,0)" xlink:href="#an"/><use transform="matrix(0.010850694444444444,0,0,0.010850694444444444,33.94097222222222,0)" xlink:href="#ay"/><use transform="matrix(0.010850694444444444,0,0,0.010850694444444444,46.38671875,0)" xlink:href="#ay"/><use transform="matrix(0.010850694444444444,0,0,0.010850694444444444,58.83246527777778,0)" xlink:href="#aw"/><use transform="matrix(0.010850694444444444,0,0,0.010850694444444444,71.73394097222223,0)" xlink:href="#aK"/><use transform="matrix(0.010850694444444444,0,0,0.010850694444444444,85.77473958333334,0)" xlink:href="#an"/></g><g id="I"><use transform="matrix(0.010850694444444444,0,0,0.010850694444444444,0,0)" xlink:href="#aV"/><use transform="matrix(0.010850694444444444,0,0,0.010850694444444444,14.55078125,0)" xlink:href="#an"/><use transform="matrix(0.010850694444444444,0,0,0.010850694444444444,27.78862847222222,0)" xlink:href="#au"/><use transform="matrix(0.010850694444444444,0,0,0.010850694444444444,41.623263888888886,0)" xlink:href="#at"/></g><path d="M443 0L31-1118h319c90 293 199 572 268 885 66-313 175-593 264-885h315L784 0H443" id="bd"/><g id="J"><use transform="matrix(0.010850694444444444,0,0,0.010850694444444444,0,0)" xlink:href="#aI"/><use transform="matrix(0.010850694444444444,0,0,0.010850694444444444,14.322916666666666,0)" xlink:href="#an"/><use transform="matrix(0.010850694444444444,0,0,0.010850694444444444,27.56076388888889,0)" xlink:href="#aD"/><use transform="matrix(0.010850694444444444,0,0,0.010850694444444444,40.63585069444444,0)" xlink:href="#aE"/><use transform="matrix(0.010850694444444444,0,0,0.010850694444444444,53.86284722222222,0)" xlink:href="#bd"/><use transform="matrix(0.010850694444444444,0,0,0.010850694444444444,66.78602430555556,0)" xlink:href="#an"/><use transform="matrix(0.010850694444444444,0,0,0.010850694444444444,80.02387152777777,0)" xlink:href="#ao"/><use transform="matrix(0.010850694444444444,0,0,0.010850694444444444,89.42057291666666,0)" xlink:href="#ar"/></g><g id="K"><use transform="matrix(0.010850694444444444,0,0,0.010850694444444444,0,0)" xlink:href="#aT"/><use transform="matrix(0.010850694444444444,0,0,0.010850694444444444,12.565104166666666,0)" xlink:href="#ap"/><use transform="matrix(0.010850694444444444,0,0,0.010850694444444444,18.587239583333332,0)" xlink:href="#au"/><use transform="matrix(0.010850694444444444,0,0,0.010850694444444444,32.421875,0)" xlink:href="#ba"/></g><g id="L"><use transform="matrix(0.010850694444444444,0,0,0.010850694444444444,0,0)" xlink:href="#aI"/><use transform="matrix(0.010850694444444444,0,0,0.010850694444444444,14.322916666666666,0)" xlink:href="#an"/><use transform="matrix(0.010850694444444444,0,0,0.010850694444444444,27.56076388888889,0)" xlink:href="#ay"/><use transform="matrix(0.010850694444444444,0,0,0.010850694444444444,40.006510416666664,0)" xlink:href="#an"/><use transform="matrix(0.010850694444444444,0,0,0.010850694444444444,53.244357638888886,0)" xlink:href="#av"/></g><g id="M"><use transform="matrix(0.010850694444444444,0,0,0.010850694444444444,0,0)" xlink:href="#az"/><use transform="matrix(0.010850694444444444,0,0,0.010850694444444444,6.239149305555555,0)" xlink:href="#au"/><use transform="matrix(0.010850694444444444,0,0,0.010850694444444444,20.07378472222222,0)" xlink:href="#aq"/><use transform="matrix(0.010850694444444444,0,0,0.010850694444444444,28.43967013888889,0)" xlink:href="#aE"/><use transform="matrix(0.010850694444444444,0,0,0.010850694444444444,42.06814236111111,0)" xlink:href="#ao"/><use transform="matrix(0.010850694444444444,0,0,0.010850694444444444,51.280381944444436,0)" xlink:href="#aU"/></g><g id="N"><use transform="matrix(0.010850694444444444,0,0,0.010850694444444444,0,0)" xlink:href="#aG"/><use transform="matrix(0.010850694444444444,0,0,0.010850694444444444,16.26519097222222,0)" xlink:href="#ay"/><use transform="matrix(0.010850694444444444,0,0,0.010850694444444444,28.7109375,0)" xlink:href="#an"/><use transform="matrix(0.010850694444444444,0,0,0.010850694444444444,41.94878472222222,0)" xlink:href="#ao"/></g><g id="O"><use transform="matrix(0.010850694444444444,0,0,0.010850694444444444,0,0)" xlink:href="#aE"/><use transform="matrix(0.010850694444444444,0,0,0.010850694444444444,13.628472222222221,0)" xlink:href="#aq"/></g><path d="M449 0L49-1490h333c89 395 194 758 253 1185 65-426 176-790 269-1185h317c93 394 201 758 268 1181 60-425 164-788 253-1181h334L1675 0h-348c-90-376-204-711-266-1118C1004-714 886-373 798 0H449" id="be"/><g id="P"><use transform="matrix(0.010850694444444444,0,0,0.010850694444444444,0,0)" xlink:href="#be"/><use transform="matrix(0.010850694444444444,0,0,0.010850694444444444,22.30902777777778,0)" xlink:href="#ao"/><use transform="matrix(0.010850694444444444,0,0,0.010850694444444444,30.81597222222222,0)" xlink:href="#aE"/><use transform="matrix(0.010850694444444444,0,0,0.010850694444444444,44.44444444444444,0)" xlink:href="#au"/><use transform="matrix(0.010850694444444444,0,0,0.010850694444444444,58.27907986111111,0)" xlink:href="#aK"/></g><path d="M42 0l360-574-338-544h324c72 124 151 261 209 394 58-134 140-271 215-394h318L785-570 1146 0H824c-79-136-169-280-234-425C528-278 439-134 360 0H42" id="bf"/><g id="Q"><use transform="matrix(0.010850694444444444,0,0,0.010850694444444444,0,0)" xlink:href="#aS"/><use transform="matrix(0.010850694444444444,0,0,0.010850694444444444,13.49826388888889,0)" xlink:href="#bf"/><use transform="matrix(0.010850694444444444,0,0,0.010850694444444444,25.944010416666664,0)" xlink:href="#aD"/><use transform="matrix(0.010850694444444444,0,0,0.010850694444444444,39.01909722222222,0)" xlink:href="#an"/><use transform="matrix(0.010850694444444444,0,0,0.010850694444444444,52.25694444444444,0)" xlink:href="#an"/><use transform="matrix(0.010850694444444444,0,0,0.010850694444444444,65.49479166666666,0)" xlink:href="#at"/><use transform="matrix(0.010850694444444444,0,0,0.010850694444444444,79.50303819444443,0)" xlink:href="#an"/><use transform="matrix(0.010850694444444444,0,0,0.010850694444444444,92.74088541666666,0)" xlink:href="#at"/></g><g id="R"><use transform="matrix(0.010850694444444444,0,0,0.010850694444444444,0,0)" xlink:href="#bc"/><use transform="matrix(0.010850694444444444,0,0,0.010850694444444444,20.703125,0)" xlink:href="#aw"/><use transform="matrix(0.010850694444444444,0,0,0.010850694444444444,33.60460069444444,0)" xlink:href="#bf"/></g><path d="M49 0l509-1490h400L1480 0h-339l-115-346H497L386 0H49zm524-585h374c-75-213-124-402-192-666-66 268-110 453-182 666" id="bg"/><path d="M390-458c-5-262 65-345 192-421 92-55 159-122 159-219 0-103-81-170-182-170-97 0-187 63-192 185H79c4-288 220-427 481-427 287 0 489 150 489 402 0 170-86 277-223 359-123 72-173 130-168 291H390zM525 19c-105 0-178-69-178-169 0-101 73-170 178-170 104 0 177 69 177 170 0 100-73 169-177 169" id="bh"/><g id="S"><use transform="matrix(0.010850694444444444,0,0,0.010850694444444444,0,0)" xlink:href="#bg"/><use transform="matrix(0.010850694444444444,0,0,0.010850694444444444,15.983072916666664,0)" xlink:href="#av"/><use transform="matrix(0.010850694444444444,0,0,0.010850694444444444,23.33984375,0)" xlink:href="#av"/><use transform="matrix(0.010850694444444444,0,0,0.010850694444444444,31.260850694444443,0)" xlink:href="#an"/><use transform="matrix(0.010850694444444444,0,0,0.010850694444444444,44.498697916666664,0)" xlink:href="#aA"/><use transform="matrix(0.010850694444444444,0,0,0.010850694444444444,58.50694444444444,0)" xlink:href="#aU"/><use transform="matrix(0.010850694444444444,0,0,0.010850694444444444,78.78689236111111,0)" xlink:href="#av"/><use transform="matrix(0.010850694444444444,0,0,0.010850694444444444,86.76215277777777,0)" xlink:href="#ay"/><use transform="matrix(0.010850694444444444,0,0,0.010850694444444444,99.20789930555556,0)" xlink:href="#bh"/></g><g id="T"><use transform="matrix(0.010850694444444444,0,0,0.010850694444444444,0,0)" xlink:href="#aL"/><use transform="matrix(0.010850694444444444,0,0,0.010850694444444444,14.398871527777777,0)" xlink:href="#ao"/><use transform="matrix(0.010850694444444444,0,0,0.010850694444444444,22.90581597222222,0)" xlink:href="#an"/><use transform="matrix(0.010850694444444444,0,0,0.010850694444444444,35.7421875,0)" xlink:href="#bd"/><use transform="matrix(0.010850694444444444,0,0,0.010850694444444444,48.66536458333333,0)" xlink:href="#an"/><use transform="matrix(0.010850694444444444,0,0,0.010850694444444444,61.90321180555555,0)" xlink:href="#au"/><use transform="matrix(0.010850694444444444,0,0,0.010850694444444444,75.73784722222223,0)" xlink:href="#av"/></g><g id="U"><use transform="matrix(0.010850694444444444,0,0,0.010850694444444444,0,0)" xlink:href="#aJ"/><use transform="matrix(0.010850694444444444,0,0,0.010850694444444444,12.293836805555555,0)" xlink:href="#aB"/><use transform="matrix(0.010850694444444444,0,0,0.010850694444444444,26.12847222222222,0)" xlink:href="#ao"/><use transform="matrix(0.010850694444444444,0,0,0.010850694444444444,35.611979166666664,0)" xlink:href="#av"/><use transform="matrix(0.010850694444444444,0,0,0.010850694444444444,43.80425347222222,0)" xlink:href="#aH"/><use transform="matrix(0.010850694444444444,0,0,0.010850694444444444,57.638888888888886,0)" xlink:href="#an"/><use transform="matrix(0.010850694444444444,0,0,0.010850694444444444,70.87673611111111,0)" xlink:href="#ao"/></g><g id="V"><use transform="matrix(0.010850694444444444,0,0,0.010850694444444444,0,0)" xlink:href="#aT"/><use transform="matrix(0.010850694444444444,0,0,0.010850694444444444,12.565104166666666,0)" xlink:href="#aE"/><use transform="matrix(0.010850694444444444,0,0,0.010850694444444444,26.19357638888889,0)" xlink:href="#aK"/><use transform="matrix(0.010850694444444444,0,0,0.010850694444444444,40.234375,0)" xlink:href="#ap"/><use transform="matrix(0.010850694444444444,0,0,0.010850694444444444,46.256510416666664,0)" xlink:href="#au"/></g></defs></g></svg>